<?xml version="1.0" encoding="UTF-8"?> <svg xmlns="http://www.w3.org/2000/svg" width="1125" viewBox="0 0 1125 1125" height="1125"> <defs> <clipPath id="a"> <path d="M 47.261719 47.261719 L 1077.761719 47.261719 L 1077.761719 1077.761719 L 47.261719 1077.761719 Z M 47.261719 47.261719"></path> </clipPath> </defs> <path fill="#020436" d="M 562.511719 47.261719 C 277.949219 47.261719 47.261719 277.949219 47.261719 562.511719 C 47.261719 847.078125 277.949219 1077.761719 562.511719 1077.761719 C 847.078125 1077.761719 1077.761719 847.078125 1077.761719 562.511719 C 1077.761719 277.949219 847.078125 47.261719 562.511719 47.261719"></path> <path fill="#E8B64A" d="M 548.730469 1013.75 L 545.246094 1013.628906 L 545.785156 999.949219 L 549.144531 1000.0625 Z M 590.414062 1013.105469 L 589.585938 999.433594 L 592.9375 999.214844 L 593.890625 1012.878906 Z M 503.714844 1010.160156 L 500.277344 1009.699219 L 502.140625 996.132812 L 505.492188 996.582031 Z M 635.296875 1008.113281 L 633.105469 994.59375 L 636.4375 994.042969 L 638.71875 1007.546875 Z M 459.285156 1002.097656 L 455.890625 1001.289062 L 459.125 987.976562 L 462.386719 988.757812 Z M 679.460938 998.65625 L 675.9375 985.425781 L 679.179688 984.542969 L 682.820312 997.742188 Z M 415.867188 989.601562 L 412.554688 988.453125 L 417.128906 975.542969 L 420.3125 976.652344 Z M 722.46875 984.800781 L 717.597656 972.003906 L 720.742188 970.792969 L 725.71875 983.550781 Z M 373.910156 972.792969 L 370.765625 971.335938 L 376.558594 958.921875 L 379.644531 960.351562 Z M 763.84375 966.683594 L 757.703125 954.445312 L 760.726562 952.917969 L 766.914062 965.136719 Z M 333.867188 951.855469 L 330.878906 950.082031 L 337.902344 938.324219 L 340.8125 940.046875 Z M 803.1875 944.519531 L 795.851562 932.957031 L 798.710938 931.132812 L 806.09375 942.671875 Z M 296.121094 927.015625 L 293.332031 924.957031 L 301.496094 913.960938 L 304.222656 915.972656 Z M 840.136719 918.527344 L 831.664062 907.769531 L 834.335938 905.664062 L 842.835938 916.402344 Z M 261.046875 898.554688 L 258.472656 896.222656 L 267.699219 886.101562 L 270.203125 888.363281 Z M 874.277344 889.019531 L 864.820312 879.109375 L 867.25 876.777344 L 876.785156 886.601562 Z M 228.984375 866.75 L 226.640625 864.167969 L 236.839844 855.023438 L 239.089844 857.511719 Z M 905.355469 856.238281 L 894.957031 847.324219 L 897.136719 844.757812 L 907.613281 853.578125 Z M 200.230469 831.917969 L 198.171875 829.136719 L 209.203125 821.019531 L 211.210938 823.734375 Z M 933.011719 820.523438 L 921.785156 812.675781 L 923.699219 809.910156 L 935 817.652344 Z M 175.09375 794.390625 L 173.328125 791.421875 L 185.117188 784.445312 L 186.84375 787.347656 Z M 956.972656 782.234375 L 945.027344 775.535156 C 945.574219 774.5625 946.117188 773.582031 946.652344 772.597656 L 958.667969 779.167969 C 958.109375 780.1875 957.546875 781.210938 956.972656 782.234375 Z M 153.839844 754.558594 L 152.375 751.417969 L 164.8125 745.675781 L 166.230469 748.71875 Z M 976.996094 741.699219 L 964.417969 736.273438 L 965.757812 733.152344 L 978.363281 738.507812 Z M 136.683594 712.785156 L 135.535156 709.488281 L 148.496094 705.050781 L 149.601562 708.226562 Z M 992.824219 699.410156 L 979.792969 695.199219 C 980.136719 694.140625 980.46875 693.074219 980.796875 692.007812 L 993.886719 696.046875 C 993.539062 697.164062 993.1875 698.289062 992.824219 699.410156 Z M 123.820312 669.492188 L 123.011719 666.109375 L 136.34375 662.980469 L 137.128906 666.257812 Z M 1004.332031 655.683594 L 990.925781 652.867188 L 991.601562 649.574219 L 1005.03125 652.265625 Z M 115.378906 625.121094 L 114.914062 621.683594 L 128.492188 619.882812 L 128.941406 623.230469 Z M 1011.375 611.0625 L 997.757812 609.613281 L 998.105469 606.25 L 1011.734375 607.617188 Z M 111.40625 580.136719 L 111.285156 576.683594 L 124.976562 576.25 L 125.09375 579.617188 Z M 1013.945312 566.65625 L 1000.246094 566.863281 L 1000.261719 563.832031 L 1013.960938 563.832031 Z M 125.566406 535.820312 L 111.894531 534.996094 L 112.113281 531.535156 L 125.777344 532.449219 Z M 999.1875 531.664062 L 998.945312 528.289062 L 1012.597656 527.253906 L 1012.851562 530.710938 Z M 130.371094 492.277344 L 116.847656 490.109375 L 117.414062 486.675781 L 130.917969 488.953125 Z M 993.980469 488.183594 L 993.398438 484.851562 L 1006.878906 482.449219 L 1007.476562 485.867188 Z M 139.503906 449.453125 L 126.265625 445.9375 L 127.171875 442.574219 L 140.378906 446.203125 Z M 984.425781 445.421875 C 984.132812 444.347656 983.832031 443.277344 983.527344 442.207031 L 996.695312 438.441406 C 997.019531 439.566406 997.335938 440.691406 997.644531 441.820312 Z M 152.898438 407.773438 L 140.089844 402.925781 L 141.335938 399.667969 L 154.109375 404.609375 Z M 970.648438 403.902344 L 969.398438 400.742188 L 982.132812 395.683594 L 983.390625 398.890625 Z M 170.4375 367.617188 L 158.179688 361.507812 L 159.742188 358.398438 L 171.957031 364.597656 Z M 952.734375 363.925781 L 951.195312 360.9375 L 963.347656 354.625 L 964.933594 357.703125 Z M 191.914062 329.421875 L 180.320312 322.132812 L 182.195312 319.183594 L 193.722656 326.582031 Z M 930.90625 325.957031 L 929.082031 323.152344 L 940.535156 315.640625 L 942.433594 318.566406 Z M 217.09375 293.578125 L 206.289062 285.15625 L 208.441406 282.417969 L 219.167969 290.929688 Z M 905.402344 290.359375 L 903.300781 287.742188 L 913.949219 279.128906 L 916.128906 281.851562 Z M 245.714844 260.414062 L 235.804688 250.957031 L 238.210938 248.453125 L 248.050781 257.980469 Z M 876.492188 257.484375 L 874.117188 255.058594 L 883.875 245.445312 L 886.292969 247.914062 Z M 277.496094 230.253906 L 268.566406 219.871094 L 271.21875 217.613281 L 280.050781 228.078125 Z M 844.433594 227.617188 L 841.84375 225.449219 L 850.589844 214.910156 L 853.253906 217.136719 Z M 312.105469 203.414062 L 304.257812 192.183594 L 307.117188 190.207031 L 314.863281 201.5 Z M 809.558594 201.089844 L 806.769531 199.195312 L 814.414062 187.828125 L 817.296875 189.785156 Z M 349.207031 180.160156 L 342.523438 168.203125 L 345.558594 166.523438 L 352.144531 178.53125 Z M 772.226562 178.175781 L 769.25 176.558594 L 775.738281 164.5 L 778.792969 166.15625 Z M 388.445312 160.738281 L 382.992188 148.171875 L 386.179688 146.804688 L 391.519531 159.417969 Z M 732.773438 159.109375 L 729.652344 157.808594 L 734.890625 145.152344 L 738.105469 146.5 Z M 429.425781 145.359375 L 425.261719 132.3125 L 428.570312 131.269531 L 432.644531 144.347656 Z M 691.601562 144.109375 L 688.386719 143.136719 L 692.316406 130.015625 L 695.648438 131.027344 Z M 471.757812 134.183594 L 468.9375 120.777344 L 472.335938 120.074219 L 475.0625 133.496094 Z M 649.171875 133.339844 L 645.859375 132.6875 L 648.445312 119.238281 L 651.859375 119.910156 Z M 515.007812 127.3125 L 513.535156 113.695312 L 516.984375 113.335938 L 518.375 126.957031 Z M 605.859375 126.882812 L 602.492188 126.570312 L 603.734375 112.929688 L 607.1875 113.253906 Z M 558.734375 124.777344 L 558.613281 111.082031 L 562.089844 111.0625 L 562.109375 124.761719 Z M 558.734375 124.777344"></path> <path fill="#E8B64A" d="M 562.511719 978.25 C 333.277344 978.25 146.78125 791.75 146.78125 562.511719 C 146.78125 333.273438 333.277344 146.777344 562.511719 146.777344 C 791.753906 146.777344 978.253906 333.273438 978.253906 562.511719 C 978.253906 791.75 791.75 978.25 562.511719 978.25 Z M 562.511719 150.292969 C 335.214844 150.292969 150.292969 335.214844 150.292969 562.515625 C 150.292969 789.820312 335.214844 974.742188 562.511719 974.742188 C 789.816406 974.742188 974.742188 789.820312 974.742188 562.515625 C 974.738281 335.214844 789.816406 150.292969 562.511719 150.292969 Z M 562.511719 150.292969"></path> <path fill="#E8B64A" d="M 566.375 1044.300781 C 564.160156 1044.300781 562.351562 1041.828125 562.332031 1039.609375 C 562.316406 1037.371094 564.105469 1034.65625 566.339844 1034.636719 L 569.980469 1033.699219 C 570.003906 1033.699219 570.023438 1033.699219 570.042969 1033.699219 C 572.25 1033.699219 574.054688 1036.023438 574.085938 1038.234375 C 574.117188 1040.46875 572.335938 1043.265625 570.101562 1043.300781 L 566.414062 1044.300781 C 566.394531 1044.300781 566.386719 1044.300781 566.375 1044.300781 Z M 544.503906 1044.300781 C 544.453125 1044.300781 544.402344 1044.300781 544.355469 1044.300781 L 540.65625 1043.308594 C 538.425781 1043.203125 536.699219 1040.890625 536.800781 1038.660156 C 536.902344 1036.429688 538.84375 1034.621094 541.023438 1034.59375 L 544.652344 1034.644531 C 546.882812 1034.726562 548.628906 1037.386719 548.546875 1039.617188 C 548.460938 1041.792969 546.667969 1044.300781 544.503906 1044.300781 Z M 591.894531 1042.058594 C 589.777344 1042.058594 587.996094 1040.410156 587.863281 1038.269531 C 587.722656 1036.039062 589.414062 1034.121094 591.644531 1033.984375 L 595.285156 1033.746094 C 597.566406 1033.578125 599.4375 1035.28125 599.589844 1037.503906 C 599.742188 1039.730469 598.058594 1041.660156 595.832031 1041.8125 L 592.148438 1042.050781 C 592.066406 1042.054688 591.980469 1042.058594 591.894531 1042.058594 Z M 519.015625 1040.988281 C 518.890625 1040.988281 518.773438 1040.980469 518.648438 1040.972656 L 514.960938 1040.621094 C 512.742188 1040.402344 511.117188 1038.421875 511.339844 1036.199219 C 511.5625 1033.976562 513.558594 1032.339844 515.761719 1032.578125 L 519.378906 1032.917969 C 521.601562 1033.121094 523.246094 1035.085938 523.042969 1037.3125 C 522.847656 1039.410156 521.082031 1040.988281 519.015625 1040.988281 Z M 617.339844 1039.828125 C 615.3125 1039.828125 613.5625 1038.300781 613.328125 1036.238281 C 613.074219 1034.019531 614.667969 1032.019531 616.886719 1031.765625 L 620.496094 1031.335938 C 622.71875 1031.046875 624.726562 1032.644531 624.996094 1034.859375 C 625.265625 1037.074219 623.6875 1039.09375 621.472656 1039.359375 L 617.796875 1039.796875 C 617.644531 1039.816406 617.492188 1039.828125 617.339844 1039.828125 Z M 493.648438 1038.003906 C 493.457031 1038.003906 493.261719 1037.988281 493.0625 1037.960938 L 489.410156 1037.421875 C 487.203125 1037.085938 485.683594 1035.023438 486.019531 1032.816406 C 486.355469 1030.609375 488.414062 1029.085938 490.621094 1029.421875 L 494.226562 1029.957031 C 496.433594 1030.28125 497.96875 1032.328125 497.644531 1034.539062 C 497.351562 1036.554688 495.625 1038.003906 493.648438 1038.003906 Z M 642.632812 1036.238281 C 640.691406 1036.238281 638.980469 1034.839844 638.648438 1032.867188 C 638.277344 1030.664062 639.757812 1028.582031 641.964844 1028.210938 L 645.542969 1027.585938 C 647.738281 1027.203125 649.84375 1028.664062 650.230469 1030.859375 C 650.621094 1033.058594 649.152344 1035.15625 646.957031 1035.546875 L 643.308594 1036.179688 C 643.082031 1036.21875 642.855469 1036.238281 642.632812 1036.238281 Z M 468.476562 1033.667969 C 468.214844 1033.667969 467.949219 1033.640625 467.675781 1033.589844 L 464.054688 1032.847656 C 461.867188 1032.398438 460.464844 1030.257812 460.921875 1028.070312 C 461.375 1025.878906 463.511719 1024.46875 465.703125 1024.933594 L 469.269531 1025.660156 C 471.460938 1026.101562 472.875 1028.234375 472.433594 1030.421875 C 472.050781 1032.339844 470.363281 1033.667969 468.476562 1033.667969 Z M 667.691406 1031.296875 C 665.84375 1031.296875 664.175781 1030.023438 663.75 1028.144531 C 663.261719 1025.964844 664.628906 1023.800781 666.804688 1023.308594 L 670.34375 1022.496094 C 672.503906 1021.984375 674.691406 1023.335938 675.203125 1025.511719 C 675.71875 1027.6875 674.367188 1029.859375 672.191406 1030.371094 L 668.585938 1031.199219 C 668.285156 1031.265625 667.984375 1031.296875 667.691406 1031.296875 Z M 443.574219 1027.976562 C 443.242188 1027.976562 442.90625 1027.933594 442.566406 1027.851562 L 438.980469 1026.910156 C 436.824219 1026.339844 435.542969 1024.125 436.113281 1021.96875 C 436.6875 1019.816406 438.902344 1018.523438 441.058594 1019.097656 L 444.574219 1020.019531 C 446.738281 1020.574219 448.039062 1022.773438 447.484375 1024.9375 C 447.019531 1026.761719 445.375 1027.976562 443.574219 1027.976562 Z M 692.445312 1025.011719 C 690.683594 1025.011719 689.0625 1023.84375 688.554688 1022.0625 C 687.953125 1019.914062 689.207031 1017.679688 691.351562 1017.074219 L 694.839844 1016.074219 C 696.988281 1015.457031 699.230469 1016.679688 699.855469 1018.824219 C 700.480469 1020.96875 699.246094 1023.210938 697.105469 1023.835938 L 693.542969 1024.859375 C 693.175781 1024.964844 692.8125 1025.011719 692.445312 1025.011719 Z M 419.015625 1020.953125 C 418.613281 1020.953125 418.203125 1020.890625 417.800781 1020.765625 C 416.613281 1020.390625 415.429688 1020.015625 414.246094 1019.628906 C 412.121094 1018.933594 410.964844 1016.648438 411.664062 1014.527344 C 412.355469 1012.40625 414.640625 1011.257812 416.761719 1011.945312 C 417.914062 1012.324219 419.070312 1012.695312 420.226562 1013.054688 C 422.355469 1013.726562 423.539062 1015.996094 422.867188 1018.128906 C 422.324219 1019.847656 420.730469 1020.953125 419.015625 1020.953125 Z M 716.828125 1017.398438 C 715.148438 1017.398438 713.578125 1016.34375 713.003906 1014.664062 C 712.28125 1012.554688 713.40625 1010.257812 715.523438 1009.53125 L 718.964844 1008.339844 C 721.074219 1007.597656 723.375 1008.710938 724.113281 1010.820312 C 724.851562 1012.925781 723.742188 1015.234375 721.632812 1015.972656 L 718.140625 1017.183594 C 717.707031 1017.332031 717.265625 1017.398438 716.828125 1017.398438 Z M 394.804688 1012.589844 C 394.328125 1012.589844 393.847656 1012.511719 393.382812 1012.332031 L 389.910156 1011.007812 C 387.824219 1010.203125 386.789062 1007.863281 387.59375 1005.785156 C 388.398438 1003.691406 390.742188 1002.652344 392.816406 1003.464844 L 396.226562 1004.761719 C 398.316406 1005.546875 399.375 1007.878906 398.589844 1009.96875 C 397.976562 1011.59375 396.4375 1012.589844 394.804688 1012.589844 Z M 740.765625 1008.476562 C 739.167969 1008.476562 737.652344 1007.519531 737.015625 1005.945312 C 736.179688 1003.875 737.179688 1001.519531 739.25 1000.6875 L 742.621094 999.304688 C 744.683594 998.457031 747.046875 999.433594 747.902344 1001.503906 C 748.75 1003.570312 747.761719 1005.933594 745.699219 1006.785156 L 742.277344 1008.179688 C 741.78125 1008.378906 741.269531 1008.476562 740.765625 1008.476562 Z M 371.089844 1002.925781 C 370.546875 1002.925781 369.996094 1002.816406 369.464844 1002.582031 L 366.070312 1001.074219 C 364.035156 1000.15625 363.128906 997.761719 364.042969 995.726562 C 364.960938 993.691406 367.351562 992.785156 369.386719 993.699219 L 372.71875 995.179688 C 374.765625 996.078125 375.691406 998.464844 374.792969 1000.503906 C 374.128906 1002.023438 372.644531 1002.925781 371.089844 1002.925781 Z M 764.144531 998.300781 C 762.617188 998.300781 761.160156 997.4375 760.476562 995.964844 C 759.535156 993.941406 760.410156 991.535156 762.433594 990.59375 L 765.710938 989.046875 C 767.726562 988.085938 770.136719 988.9375 771.097656 990.957031 C 772.054688 992.96875 771.199219 995.382812 769.1875 996.34375 L 765.851562 997.917969 C 765.296875 998.179688 764.714844 998.300781 764.144531 998.300781 Z M 347.941406 992.007812 C 347.332031 992.007812 346.710938 991.867188 346.125 991.574219 C 345.019531 991.015625 343.914062 990.453125 342.808594 989.882812 C 340.828125 988.855469 340.054688 986.417969 341.082031 984.429688 C 342.113281 982.445312 344.554688 981.675781 346.53125 982.707031 C 347.609375 983.265625 348.683594 983.8125 349.765625 984.359375 C 351.757812 985.367188 352.5625 987.796875 351.554688 989.789062 C 350.84375 991.191406 349.421875 992.007812 347.941406 992.007812 Z M 786.933594 986.878906 C 785.492188 986.878906 784.09375 986.101562 783.363281 984.746094 C 782.3125 982.773438 783.054688 980.324219 785.019531 979.273438 L 788.210938 977.550781 C 790.171875 976.484375 792.628906 977.203125 793.699219 979.164062 C 794.769531 981.125 794.042969 983.578125 792.082031 984.648438 L 788.835938 986.402344 C 788.230469 986.722656 787.578125 986.878906 786.933594 986.878906 Z M 325.429688 979.859375 C 324.746094 979.859375 324.050781 979.6875 323.417969 979.324219 L 320.21875 977.46875 C 318.289062 976.34375 317.636719 973.867188 318.761719 971.941406 C 319.886719 970.011719 322.363281 969.367188 324.285156 970.488281 L 327.449219 972.316406 C 329.386719 973.429688 330.050781 975.902344 328.941406 977.835938 C 328.1875 979.132812 326.828125 979.859375 325.429688 979.859375 Z M 809.089844 974.257812 C 807.726562 974.257812 806.394531 973.566406 805.632812 972.316406 C 804.472656 970.410156 805.078125 967.921875 806.980469 966.757812 L 810.082031 964.863281 C 811.992188 963.691406 814.476562 964.277344 815.648438 966.175781 C 816.820312 968.078125 816.230469 970.566406 814.332031 971.742188 L 811.1875 973.667969 C 810.53125 974.066406 809.808594 974.257812 809.089844 974.257812 Z M 303.605469 966.519531 C 302.851562 966.519531 302.089844 966.308594 301.410156 965.867188 C 300.371094 965.195312 299.335938 964.515625 298.300781 963.835938 C 296.441406 962.601562 295.933594 960.09375 297.164062 958.230469 C 298.398438 956.371094 300.910156 955.855469 302.769531 957.09375 C 303.777344 957.761719 304.792969 958.425781 305.804688 959.082031 C 307.679688 960.292969 308.214844 962.800781 307 964.671875 C 306.226562 965.867188 304.929688 966.519531 303.605469 966.519531 Z M 830.546875 960.453125 C 829.261719 960.453125 827.996094 959.839844 827.210938 958.699219 C 825.949219 956.859375 826.414062 954.34375 828.253906 953.078125 L 831.261719 951.011719 C 833.105469 949.753906 835.617188 950.199219 836.886719 952.039062 C 838.15625 953.878906 837.695312 956.390625 835.859375 957.664062 L 832.839844 959.742188 C 832.132812 960.21875 831.335938 960.453125 830.546875 960.453125 Z M 282.535156 952.039062 C 281.710938 952.039062 280.878906 951.789062 280.15625 951.261719 L 277.179688 949.082031 C 275.382812 947.757812 274.996094 945.226562 276.316406 943.429688 C 277.640625 941.628906 280.167969 941.246094 281.96875 942.566406 L 284.917969 944.726562 C 286.722656 946.039062 287.117188 948.570312 285.804688 950.375 C 285.015625 951.460938 283.785156 952.039062 282.535156 952.039062 Z M 851.238281 945.515625 C 850.019531 945.515625 848.8125 944.96875 848.019531 943.921875 C 846.667969 942.144531 847.007812 939.609375 848.785156 938.257812 L 851.660156 936.042969 C 853.429688 934.671875 855.96875 934.996094 857.332031 936.761719 C 858.703125 938.527344 858.378906 941.070312 856.613281 942.433594 L 853.683594 944.6875 C 852.953125 945.246094 852.09375 945.515625 851.238281 945.515625 Z M 262.277344 936.453125 C 261.378906 936.453125 260.476562 936.15625 259.726562 935.542969 L 256.871094 933.207031 C 255.148438 931.792969 254.902344 929.242188 256.316406 927.519531 C 257.738281 925.792969 260.28125 925.546875 262.007812 926.964844 L 264.832031 929.28125 C 266.5625 930.683594 266.820312 933.234375 265.414062 934.964844 C 264.613281 935.941406 263.449219 936.453125 262.277344 936.453125 Z M 871.109375 929.5 C 869.960938 929.5 868.824219 929.011719 868.023438 928.070312 C 866.582031 926.367188 866.789062 923.816406 868.492188 922.371094 C 869.414062 921.589844 870.332031 920.808594 871.246094 920.011719 C 872.9375 918.542969 875.484375 918.738281 876.945312 920.421875 C 878.40625 922.109375 878.222656 924.660156 876.535156 926.125 C 875.601562 926.933594 874.664062 927.738281 873.722656 928.539062 C 872.964844 929.179688 872.03125 929.5 871.109375 929.5 Z M 242.882812 919.816406 C 241.917969 919.816406 240.945312 919.46875 240.171875 918.769531 L 237.433594 916.269531 C 235.792969 914.753906 235.6875 912.203125 237.203125 910.558594 C 238.710938 908.914062 241.269531 908.8125 242.914062 910.324219 L 245.59375 912.773438 C 247.253906 914.273438 247.378906 916.824219 245.882812 918.484375 C 245.082031 919.367188 243.984375 919.816406 242.882812 919.816406 Z M 890.105469 912.4375 C 889.03125 912.4375 887.960938 912.011719 887.164062 911.167969 C 885.628906 909.542969 885.710938 906.984375 887.335938 905.453125 C 888.214844 904.625 889.085938 903.789062 889.953125 902.957031 C 891.5625 901.402344 894.117188 901.449219 895.667969 903.054688 C 897.21875 904.664062 897.171875 907.222656 895.570312 908.769531 C 894.675781 909.632812 893.78125 910.488281 892.875 911.339844 C 892.097656 912.074219 891.101562 912.4375 890.105469 912.4375 Z M 224.414062 902.171875 C 223.375 902.171875 222.335938 901.773438 221.542969 900.976562 L 218.945312 898.34375 C 217.386719 896.746094 217.414062 894.183594 219.015625 892.625 C 220.613281 891.066406 223.175781 891.097656 224.730469 892.691406 L 227.277344 895.277344 C 228.851562 896.863281 228.84375 899.421875 227.261719 900.996094 C 226.472656 901.78125 225.441406 902.171875 224.414062 902.171875 Z M 908.175781 894.382812 C 907.175781 894.382812 906.175781 894.015625 905.390625 893.273438 C 903.773438 891.730469 903.703125 889.175781 905.242188 887.554688 L 907.734375 884.910156 C 909.261719 883.277344 911.816406 883.195312 913.449219 884.714844 C 915.082031 886.242188 915.164062 888.796875 913.644531 890.429688 L 911.105469 893.125 C 910.308594 893.957031 909.242188 894.382812 908.175781 894.382812 Z M 206.910156 883.570312 C 205.800781 883.570312 204.695312 883.113281 203.894531 882.222656 C 203.070312 881.300781 202.25 880.378906 201.433594 879.441406 C 199.964844 877.757812 200.132812 875.207031 201.816406 873.738281 C 203.5 872.269531 206.050781 872.441406 207.523438 874.121094 C 208.316406 875.027344 209.117188 875.933594 209.925781 876.832031 C 211.410156 878.5 211.269531 881.050781 209.605469 882.542969 C 208.832031 883.230469 207.867188 883.570312 206.910156 883.570312 Z M 925.253906 875.386719 C 924.328125 875.386719 923.394531 875.0625 922.632812 874.417969 C 920.9375 872.964844 920.738281 870.410156 922.183594 868.71875 C 922.972656 867.796875 923.75 866.875 924.53125 865.945312 C 925.960938 864.242188 928.507812 864.007812 930.226562 865.445312 C 931.9375 866.878906 932.164062 869.429688 930.726562 871.136719 C 929.933594 872.089844 929.132812 873.03125 928.332031 873.96875 C 927.53125 874.90625 926.398438 875.386719 925.253906 875.386719 Z M 190.429688 864.078125 C 189.242188 864.078125 188.070312 863.558594 187.269531 862.558594 L 184.972656 859.664062 C 183.589844 857.90625 183.894531 855.363281 185.648438 853.988281 C 187.40625 852.609375 189.945312 852.914062 191.328125 854.664062 L 193.585938 857.507812 C 194.980469 859.25 194.699219 861.792969 192.957031 863.191406 C 192.207031 863.785156 191.3125 864.078125 190.429688 864.078125 Z M 941.304688 855.5 C 940.445312 855.5 939.582031 855.226562 938.847656 854.660156 C 937.078125 853.300781 936.746094 850.761719 938.105469 848.996094 C 938.839844 848.035156 939.566406 847.074219 940.292969 846.109375 C 941.636719 844.320312 944.171875 843.96875 945.953125 845.300781 C 947.742188 846.636719 948.101562 849.171875 946.761719 850.957031 C 946.023438 851.953125 945.273438 852.941406 944.515625 853.921875 C 943.71875 854.953125 942.519531 855.5 941.304688 855.5 Z M 175.011719 843.730469 C 173.75 843.730469 172.511719 843.140625 171.71875 842.039062 L 169.585938 839.03125 C 168.296875 837.207031 168.730469 834.6875 170.558594 833.398438 C 172.375 832.105469 174.902344 832.550781 176.191406 834.363281 L 178.296875 837.328125 C 179.597656 839.148438 179.175781 841.671875 177.363281 842.972656 C 176.648438 843.488281 175.828125 843.730469 175.011719 843.730469 Z M 956.28125 834.773438 C 955.496094 834.773438 954.710938 834.546875 954.011719 834.074219 C 952.164062 832.824219 951.683594 830.308594 952.9375 828.460938 L 954.980469 825.4375 C 956.226562 823.582031 958.742188 823.09375 960.589844 824.335938 C 962.441406 825.582031 962.941406 828.089844 961.695312 829.945312 L 959.625 833.003906 C 958.847656 834.152344 957.574219 834.773438 956.28125 834.773438 Z M 160.710938 822.601562 C 159.378906 822.601562 158.070312 821.941406 157.300781 820.734375 L 155.328125 817.617188 C 154.140625 815.730469 154.707031 813.234375 156.597656 812.042969 C 158.484375 810.851562 160.988281 811.421875 162.171875 813.3125 L 164.113281 816.378906 C 165.316406 818.257812 164.765625 820.757812 162.882812 821.960938 C 162.210938 822.394531 161.457031 822.601562 160.710938 822.601562 Z M 970.121094 813.277344 C 969.410156 813.277344 968.6875 813.085938 968.03125 812.691406 C 966.125 811.535156 965.511719 809.050781 966.667969 807.140625 L 968.546875 804.015625 C 969.6875 802.09375 972.167969 801.464844 974.085938 802.613281 C 976.003906 803.757812 976.632812 806.238281 975.484375 808.15625 L 973.578125 811.328125 C 972.820312 812.582031 971.488281 813.277344 970.121094 813.277344 Z M 147.566406 800.746094 C 146.15625 800.746094 144.785156 800.007812 144.042969 798.691406 L 142.238281 795.476562 C 141.152344 793.519531 141.859375 791.0625 143.808594 789.976562 C 145.757812 788.886719 148.222656 789.601562 149.308594 791.546875 L 151.082031 794.710938 C 152.179688 796.65625 151.492188 799.121094 149.550781 800.21875 C 148.917969 800.578125 148.238281 800.746094 147.566406 800.746094 Z M 982.792969 791.058594 C 982.140625 791.058594 981.484375 790.902344 980.875 790.570312 C 978.910156 789.511719 978.179688 787.058594 979.238281 785.089844 C 979.8125 784.027344 980.375 782.957031 980.9375 781.886719 C 981.96875 779.914062 984.40625 779.144531 986.394531 780.183594 C 988.375 781.21875 989.132812 783.660156 988.097656 785.644531 C 987.523438 786.746094 986.941406 787.839844 986.347656 788.9375 C 985.617188 790.289062 984.230469 791.058594 982.792969 791.058594 Z M 135.609375 778.222656 C 134.121094 778.222656 132.691406 777.402344 131.984375 775.976562 L 130.355469 772.664062 C 129.382812 770.65625 130.21875 768.234375 132.226562 767.261719 C 134.230469 766.285156 136.648438 767.125 137.628906 769.128906 L 139.222656 772.378906 C 140.214844 774.375 139.402344 776.804688 137.402344 777.796875 C 136.828125 778.089844 136.214844 778.222656 135.609375 778.222656 Z M 994.257812 768.179688 C 993.6875 768.179688 993.101562 768.054688 992.550781 767.796875 C 990.527344 766.847656 989.65625 764.441406 990.601562 762.425781 L 992.136719 759.113281 C 993.066406 757.085938 995.460938 756.1875 997.496094 757.125 C 999.523438 758.054688 1000.417969 760.453125 999.484375 762.484375 L 997.925781 765.855469 C 997.238281 767.320312 995.777344 768.179688 994.257812 768.179688 Z M 124.890625 755.105469 C 123.324219 755.105469 121.835938 754.191406 121.179688 752.660156 L 119.734375 749.277344 C 118.863281 747.222656 119.824219 744.847656 121.882812 743.980469 C 123.941406 743.117188 126.308594 744.066406 127.179688 746.125 L 128.605469 749.460938 C 129.488281 751.511719 128.539062 753.890625 126.492188 754.773438 C 125.96875 755 125.425781 755.105469 124.890625 755.105469 Z M 1004.476562 744.707031 C 1003.972656 744.707031 1003.460938 744.617188 1002.964844 744.414062 C 1000.894531 743.582031 999.890625 741.222656 1000.726562 739.152344 L 1002.085938 735.757812 C 1002.90625 733.679688 1005.269531 732.671875 1007.328125 733.484375 C 1009.40625 734.304688 1010.421875 736.652344 1009.601562 738.730469 L 1008.226562 742.175781 C 1007.59375 743.75 1006.078125 744.707031 1004.476562 744.707031 Z M 115.429688 731.457031 C 113.789062 731.457031 112.238281 730.445312 111.636719 728.8125 L 110.371094 725.339844 C 109.613281 723.238281 110.699219 720.921875 112.800781 720.164062 C 114.894531 719.394531 117.21875 720.492188 117.972656 722.59375 L 119.222656 726.015625 C 119.996094 728.113281 118.925781 730.433594 116.828125 731.207031 C 116.371094 731.375 115.894531 731.457031 115.429688 731.457031 Z M 1013.414062 720.707031 C 1012.984375 720.707031 1012.542969 720.636719 1012.113281 720.488281 C 1009.996094 719.769531 1008.867188 717.472656 1009.589844 715.359375 L 1010.761719 711.890625 C 1011.46875 709.773438 1013.746094 708.632812 1015.878906 709.339844 C 1017.992188 710.046875 1019.136719 712.339844 1018.429688 714.457031 L 1017.242188 717.96875 C 1016.667969 719.648438 1015.097656 720.707031 1013.414062 720.707031 Z M 107.242188 707.257812 C 105.511719 707.257812 103.917969 706.144531 103.378906 704.402344 L 102.300781 700.863281 C 101.660156 698.726562 102.875 696.472656 105.015625 695.828125 C 107.148438 695.179688 109.40625 696.402344 110.050781 698.539062 L 111.105469 702.023438 C 111.765625 704.15625 110.570312 706.417969 108.433594 707.078125 C 108.035156 707.199219 107.632812 707.257812 107.242188 707.257812 Z M 1021.023438 696.308594 C 1020.65625 696.308594 1020.292969 696.257812 1019.921875 696.15625 C 1017.777344 695.550781 1016.523438 693.3125 1017.128906 691.167969 L 1018.101562 687.660156 C 1018.695312 685.507812 1020.933594 684.257812 1023.074219 684.832031 C 1025.226562 685.425781 1026.492188 687.652344 1025.898438 689.800781 L 1024.910156 693.359375 C 1024.410156 695.140625 1022.789062 696.308594 1021.023438 696.308594 Z M 100.367188 682.65625 C 98.554688 682.65625 96.90625 681.429688 96.449219 679.59375 L 95.566406 675.992188 C 95.042969 673.824219 96.378906 671.640625 98.550781 671.117188 C 100.703125 670.597656 102.902344 671.925781 103.425781 674.101562 L 104.292969 677.632812 C 104.835938 679.796875 103.519531 681.992188 101.351562 682.535156 C 101.019531 682.617188 100.691406 682.65625 100.367188 682.65625 Z M 1027.304688 671.550781 C 1027.007812 671.550781 1026.710938 671.519531 1026.410156 671.453125 C 1024.234375 670.960938 1022.867188 668.800781 1023.355469 666.621094 L 1024.140625 663.070312 C 1024.609375 660.890625 1026.757812 659.515625 1028.945312 659.972656 C 1031.125 660.445312 1032.511719 662.597656 1032.039062 664.777344 L 1031.242188 668.398438 C 1030.816406 670.273438 1029.152344 671.550781 1027.304688 671.550781 Z M 94.828125 657.71875 C 92.933594 657.71875 91.242188 656.378906 90.867188 654.445312 L 90.175781 650.8125 C 89.769531 648.617188 91.21875 646.507812 93.417969 646.101562 C 95.601562 645.707031 97.722656 647.144531 98.125 649.335938 L 98.804688 652.910156 C 99.226562 655.097656 97.796875 657.222656 95.601562 657.644531 C 95.34375 657.699219 95.085938 657.71875 94.828125 657.71875 Z M 1032.234375 646.484375 C 1032.011719 646.484375 1031.785156 646.46875 1031.558594 646.425781 C 1029.359375 646.054688 1027.875 643.96875 1028.246094 641.769531 L 1028.835938 638.183594 C 1029.1875 635.984375 1031.230469 634.472656 1033.46875 634.832031 C 1035.671875 635.183594 1037.171875 637.257812 1036.820312 639.460938 L 1036.214844 643.117188 C 1035.882812 645.085938 1034.175781 646.484375 1032.234375 646.484375 Z M 90.648438 632.527344 C 88.660156 632.527344 86.925781 631.0625 86.648438 629.039062 L 86.152344 625.375 C 85.863281 623.160156 87.425781 621.128906 89.636719 620.839844 C 91.851562 620.53125 93.878906 622.113281 94.167969 624.324219 L 94.652344 627.929688 C 94.960938 630.144531 93.414062 632.179688 91.203125 632.488281 C 91.019531 632.511719 90.832031 632.527344 90.648438 632.527344 Z M 1035.804688 621.199219 C 1035.65625 621.199219 1035.503906 621.1875 1035.347656 621.167969 C 1033.128906 620.917969 1031.535156 618.914062 1031.785156 616.695312 L 1032.183594 613.074219 C 1032.425781 610.851562 1034.4375 609.21875 1036.636719 609.484375 C 1038.859375 609.722656 1040.460938 611.71875 1040.226562 613.9375 L 1039.820312 617.609375 C 1039.585938 619.671875 1037.835938 621.199219 1035.804688 621.199219 Z M 87.816406 607.140625 C 85.738281 607.140625 83.972656 605.546875 83.792969 603.4375 L 83.496094 599.746094 C 83.328125 597.519531 84.996094 595.578125 87.21875 595.40625 C 89.398438 595.179688 91.390625 596.902344 91.558594 599.132812 L 91.851562 602.753906 C 92.042969 604.976562 90.390625 606.933594 88.167969 607.121094 C 88.050781 607.132812 87.933594 607.140625 87.816406 607.140625 Z M 1038.027344 595.75 C 1037.949219 595.75 1037.867188 595.746094 1037.789062 595.742188 C 1035.558594 595.609375 1033.859375 593.699219 1033.992188 591.46875 L 1034.199219 587.824219 C 1034.316406 585.597656 1036.121094 583.878906 1038.453125 584.007812 C 1040.683594 584.128906 1042.390625 586.03125 1042.273438 588.261719 L 1042.0625 591.945312 C 1041.9375 594.097656 1040.152344 595.75 1038.027344 595.75 Z M 86.355469 581.492188 C 84.179688 581.492188 82.382812 579.835938 82.316406 577.648438 L 82.214844 574.492188 C 82.160156 572.261719 83.925781 570.890625 86.160156 570.890625 C 86.191406 570.890625 86.226562 570.890625 86.257812 570.890625 C 88.445312 570.890625 90.242188 572.140625 90.300781 574.339844 L 90.398438 577.648438 C 90.46875 579.878906 88.71875 581.492188 86.484375 581.492188 C 86.4375 581.492188 86.398438 581.492188 86.355469 581.492188 Z M 1038.894531 570.894531 C 1038.882812 570.894531 1038.871094 570.894531 1038.859375 570.894531 C 1036.625 570.894531 1034.832031 568.714844 1034.847656 566.480469 L 1034.863281 562.679688 C 1034.863281 562.523438 1034.875 562.285156 1034.890625 562.136719 C 1034.871094 561.984375 1034.859375 561.78125 1034.859375 561.621094 L 1034.839844 557.640625 C 1034.820312 555.410156 1036.617188 553.230469 1038.847656 553.230469 C 1038.859375 553.230469 1038.871094 553.230469 1038.882812 553.230469 C 1041.101562 553.230469 1042.90625 555.332031 1042.929688 557.554688 L 1042.949219 561.398438 C 1042.949219 561.558594 1042.9375 561.796875 1042.921875 561.949219 C 1042.941406 562.105469 1042.953125 562.3125 1042.953125 562.472656 L 1042.9375 566.53125 C 1042.914062 568.753906 1041.109375 570.894531 1038.894531 570.894531 Z M 86.234375 556.761719 C 86.207031 556.761719 86.175781 556.761719 86.144531 556.761719 C 83.914062 556.761719 82.144531 554.535156 82.1875 552.304688 L 82.285156 548.433594 C 82.347656 546.203125 84.125 544.304688 86.445312 544.433594 C 88.675781 544.5 90.429688 546.316406 90.363281 548.550781 L 90.273438 552.496094 C 90.230469 554.699219 88.429688 556.761719 86.234375 556.761719 Z M 1038.175781 540.078125 C 1036.042969 540.078125 1034.261719 538.40625 1034.140625 536.253906 L 1033.929688 532.625 C 1033.789062 530.394531 1035.480469 528.476562 1037.710938 528.339844 C 1039.996094 528.207031 1041.859375 529.898438 1041.996094 532.125 L 1042.214844 535.820312 C 1042.335938 538.046875 1040.625 539.953125 1038.394531 540.070312 C 1038.320312 540.074219 1038.25 540.078125 1038.175781 540.078125 Z M 87.460938 530.589844 C 87.359375 530.589844 87.253906 530.585938 87.15625 530.578125 C 84.929688 530.414062 83.257812 528.46875 83.425781 526.246094 L 83.714844 522.558594 C 83.898438 520.332031 85.882812 518.679688 88.074219 518.859375 C 90.300781 519.042969 91.957031 520.996094 91.773438 523.21875 L 91.488281 526.847656 C 91.332031 528.972656 89.558594 530.589844 87.460938 530.589844 Z M 1036.101562 514.621094 C 1034.066406 514.621094 1032.3125 513.085938 1032.085938 511.011719 L 1031.679688 507.398438 C 1031.421875 505.183594 1033.011719 503.175781 1035.226562 502.917969 C 1037.457031 502.671875 1039.453125 504.25 1039.714844 506.464844 L 1040.128906 510.144531 C 1040.363281 512.363281 1038.761719 514.355469 1036.542969 514.597656 C 1036.394531 514.609375 1036.25 514.621094 1036.101562 514.621094 Z M 90.042969 505.179688 C 89.875 505.179688 89.699219 505.171875 89.527344 505.148438 C 87.3125 504.863281 85.746094 502.84375 86.03125 500.628906 L 86.515625 496.953125 C 86.816406 494.742188 88.855469 493.171875 91.070312 493.496094 C 93.28125 493.792969 94.828125 495.835938 94.53125 498.046875 L 94.050781 501.652344 C 93.789062 503.691406 92.050781 505.179688 90.042969 505.179688 Z M 1032.667969 489.316406 C 1030.71875 489.316406 1029.003906 487.90625 1028.679688 485.921875 L 1028.082031 482.335938 C 1027.710938 480.136719 1029.1875 478.046875 1031.382812 477.667969 C 1033.609375 477.296875 1035.679688 478.765625 1036.054688 480.96875 L 1036.664062 484.625 C 1037.023438 486.828125 1035.527344 488.902344 1033.324219 489.261719 C 1033.101562 489.296875 1032.882812 489.316406 1032.667969 489.316406 Z M 93.980469 479.941406 C 93.738281 479.941406 93.496094 479.921875 93.246094 479.875 C 91.050781 479.472656 89.597656 477.367188 90 475.167969 L 90.683594 471.535156 C 91.101562 469.339844 93.222656 467.910156 95.414062 468.324219 C 97.605469 468.742188 99.042969 470.859375 98.625 473.054688 L 97.953125 476.628906 C 97.597656 478.578125 95.894531 479.941406 93.980469 479.941406 Z M 1027.878906 464.222656 C 1026.019531 464.222656 1024.347656 462.929688 1023.933594 461.046875 L 1023.140625 457.488281 C 1022.648438 455.3125 1024.015625 453.144531 1026.195312 452.65625 C 1028.386719 452.164062 1030.535156 453.53125 1031.027344 455.707031 L 1031.832031 459.3125 C 1032.308594 461.492188 1030.925781 463.652344 1028.746094 464.128906 C 1028.457031 464.1875 1028.164062 464.222656 1027.878906 464.222656 Z M 99.269531 454.953125 C 98.957031 454.953125 98.636719 454.917969 98.320312 454.839844 C 96.148438 454.320312 94.8125 452.136719 95.335938 449.964844 L 96.214844 446.371094 C 96.75 444.199219 98.941406 442.882812 101.113281 443.421875 C 103.28125 443.964844 104.601562 446.152344 104.0625 448.324219 L 103.195312 451.855469 C 102.75 453.707031 101.09375 454.953125 99.269531 454.953125 Z M 1021.75 439.425781 C 1019.976562 439.425781 1018.347656 438.25 1017.851562 436.457031 L 1016.875 432.953125 C 1016.261719 430.808594 1017.507812 428.570312 1019.652344 427.960938 C 1021.796875 427.351562 1024.035156 428.59375 1024.648438 430.742188 L 1025.648438 434.308594 C 1026.238281 436.460938 1024.976562 438.683594 1022.824219 439.277344 C 1022.464844 439.382812 1022.105469 439.425781 1021.75 439.425781 Z M 105.898438 430.289062 C 105.515625 430.289062 105.125 430.230469 104.738281 430.117188 C 102.597656 429.480469 101.382812 427.226562 102.019531 425.085938 L 103.09375 421.542969 C 103.75 419.410156 106.015625 418.207031 108.144531 418.867188 C 110.277344 419.523438 111.476562 421.785156 110.824219 423.917969 L 109.769531 427.398438 C 109.242188 429.152344 107.636719 430.289062 105.898438 430.289062 Z M 1014.292969 414.992188 C 1012.601562 414.992188 1011.03125 413.925781 1010.460938 412.238281 L 1009.292969 408.789062 C 1008.566406 406.675781 1009.6875 404.378906 1011.804688 403.652344 C 1013.925781 402.925781 1016.214844 404.050781 1016.9375 406.160156 L 1018.128906 409.660156 C 1018.839844 411.773438 1017.699219 414.066406 1015.585938 414.777344 C 1015.15625 414.925781 1014.722656 414.992188 1014.292969 414.992188 Z M 113.871094 405.957031 C 113.417969 405.957031 112.960938 405.882812 112.507812 405.71875 C 110.40625 404.96875 109.3125 402.652344 110.066406 400.550781 L 111.335938 397.054688 C 112.109375 394.960938 114.429688 393.890625 116.523438 394.660156 C 118.621094 395.429688 119.691406 397.753906 118.921875 399.847656 L 117.675781 403.273438 C 117.082031 404.929688 115.527344 405.957031 113.871094 405.957031 Z M 1005.515625 391.007812 C 1003.90625 391.007812 1002.390625 390.042969 1001.761719 388.457031 L 1000.402344 385.074219 C 999.566406 383.007812 1000.5625 380.652344 1002.632812 379.808594 C 1004.695312 378.976562 1007.0625 379.96875 1007.898438 382.039062 L 1009.273438 385.464844 C 1010.097656 387.539062 1009.082031 389.890625 1007.011719 390.714844 C 1006.519531 390.917969 1006.011719 391.007812 1005.515625 391.007812 Z M 123.144531 382.09375 C 122.621094 382.09375 122.09375 381.988281 121.582031 381.773438 C 119.519531 380.910156 118.554688 378.539062 119.421875 376.476562 L 120.871094 373.066406 C 121.75 371.007812 124.125 370.058594 126.179688 370.941406 C 128.234375 371.820312 129.183594 374.199219 128.304688 376.253906 L 126.875 379.617188 C 126.226562 381.164062 124.726562 382.09375 123.144531 382.09375 Z M 995.480469 367.570312 C 993.949219 367.570312 992.484375 366.695312 991.804688 365.210938 L 990.277344 361.933594 C 989.328125 359.914062 990.199219 357.507812 992.222656 356.554688 C 994.238281 355.609375 996.648438 356.472656 997.597656 358.496094 L 999.148438 361.84375 C 1000.082031 363.875 999.1875 366.273438 997.160156 367.203125 C 996.621094 367.453125 996.046875 367.570312 995.480469 367.570312 Z M 133.699219 358.773438 C 133.109375 358.773438 132.507812 358.644531 131.9375 358.367188 C 129.933594 357.398438 129.089844 354.976562 130.0625 352.96875 L 131.695312 349.636719 C 132.6875 347.636719 135.113281 346.816406 137.109375 347.800781 C 139.109375 348.792969 139.929688 351.21875 138.945312 353.21875 L 137.339844 356.492188 C 136.640625 357.933594 135.199219 358.773438 133.699219 358.773438 Z M 984.210938 344.710938 C 982.761719 344.710938 981.359375 343.925781 980.632812 342.554688 L 978.929688 339.355469 C 977.875 337.386719 978.613281 334.9375 980.582031 333.878906 C 982.542969 332.824219 984.996094 333.5625 986.054688 335.527344 L 987.785156 338.78125 C 988.828125 340.757812 988.070312 343.203125 986.09375 344.246094 C 985.496094 344.5625 984.847656 344.710938 984.210938 344.710938 Z M 145.488281 336.066406 C 144.824219 336.066406 144.15625 335.902344 143.535156 335.558594 C 141.582031 334.480469 140.875 332.019531 141.953125 330.066406 L 143.765625 326.828125 C 144.859375 324.878906 147.320312 324.195312 149.273438 325.289062 C 151.214844 326.386719 151.902344 328.851562 150.808594 330.796875 L 149.03125 333.976562 C 148.292969 335.308594 146.910156 336.066406 145.488281 336.066406 Z M 971.722656 322.480469 C 970.34375 322.480469 969.003906 321.777344 968.25 320.507812 L 966.378906 317.40625 C 965.21875 315.496094 965.824219 313.011719 967.726562 311.851562 C 969.640625 310.695312 972.121094 311.292969 973.285156 313.199219 L 975.191406 316.367188 C 976.335938 318.28125 975.707031 320.765625 973.792969 321.910156 C 973.140625 322.296875 972.425781 322.480469 971.722656 322.480469 Z M 158.476562 314.03125 C 157.742188 314.03125 157.003906 313.828125 156.335938 313.414062 C 154.445312 312.230469 153.871094 309.730469 155.058594 307.839844 L 157.039062 304.703125 C 158.242188 302.824219 160.746094 302.273438 162.625 303.476562 C 164.503906 304.675781 165.054688 307.175781 163.855469 309.058594 L 161.914062 312.132812 C 161.140625 313.355469 159.824219 314.03125 158.476562 314.03125 Z M 958.050781 300.945312 C 956.746094 300.945312 955.472656 300.316406 954.691406 299.152344 C 954.019531 298.152344 953.339844 297.15625 952.65625 296.15625 C 951.398438 294.3125 951.863281 291.796875 953.710938 290.539062 C 955.550781 289.273438 958.070312 289.75 959.332031 291.585938 C 960.027344 292.605469 960.722656 293.625 961.40625 294.652344 C 962.65625 296.507812 962.15625 299.015625 960.300781 300.261719 C 959.605469 300.722656 958.820312 300.945312 958.050781 300.945312 Z M 172.628906 292.730469 C 171.820312 292.730469 171.011719 292.492188 170.304688 291.996094 C 168.480469 290.710938 168.042969 288.1875 169.324219 286.363281 L 171.46875 283.34375 C 172.769531 281.527344 175.292969 281.113281 177.109375 282.40625 C 178.925781 283.707031 179.34375 286.234375 178.046875 288.050781 L 175.941406 291.019531 C 175.148438 292.132812 173.898438 292.730469 172.628906 292.730469 Z M 943.242188 280.160156 C 942.015625 280.160156 940.808594 279.605469 940.007812 278.550781 L 937.8125 275.65625 C 936.453125 273.882812 936.792969 271.347656 938.566406 269.988281 C 940.335938 268.628906 942.878906 268.972656 944.234375 270.742188 L 946.46875 273.683594 C 947.808594 275.464844 947.453125 278 945.667969 279.34375 C 944.945312 279.894531 944.089844 280.160156 943.242188 280.160156 Z M 187.894531 272.226562 C 187.015625 272.226562 186.136719 271.945312 185.394531 271.359375 C 183.640625 269.980469 183.335938 267.4375 184.71875 265.683594 L 187.011719 262.78125 C 188.410156 261.035156 190.949219 260.753906 192.695312 262.144531 C 194.4375 263.535156 194.726562 266.078125 193.332031 267.824219 L 191.070312 270.683594 C 190.273438 271.695312 189.089844 272.226562 187.894531 272.226562 Z M 927.347656 260.191406 C 926.195312 260.191406 925.050781 259.703125 924.25 258.753906 L 921.898438 255.976562 C 920.449219 254.28125 920.648438 251.726562 922.347656 250.277344 C 924.050781 248.828125 926.601562 249.03125 928.046875 250.730469 L 930.4375 253.542969 C 931.871094 255.253906 931.65625 257.804688 929.945312 259.238281 C 929.191406 259.878906 928.265625 260.191406 927.347656 260.191406 Z M 204.226562 252.570312 C 203.277344 252.570312 202.328125 252.242188 201.5625 251.566406 C 199.882812 250.09375 199.71875 247.539062 201.191406 245.859375 L 203.636719 243.089844 C 205.121094 241.421875 207.671875 241.273438 209.34375 242.753906 C 211.011719 244.238281 211.164062 246.792969 209.679688 248.464844 L 207.265625 251.195312 C 206.464844 252.101562 205.347656 252.570312 204.226562 252.570312 Z M 910.390625 241.085938 C 909.3125 241.085938 908.238281 240.65625 907.4375 239.804688 L 904.945312 237.160156 C 903.40625 235.539062 903.476562 232.984375 905.09375 231.441406 C 906.71875 229.910156 909.269531 229.972656 910.808594 231.589844 L 913.347656 234.285156 C 914.871094 235.914062 914.785156 238.472656 913.152344 239.996094 C 912.375 240.726562 911.386719 241.085938 910.390625 241.085938 Z M 221.578125 233.816406 C 220.558594 233.816406 219.539062 233.433594 218.757812 232.667969 C 217.160156 231.109375 217.128906 228.550781 218.6875 226.953125 L 221.277344 224.316406 C 222.847656 222.730469 225.40625 222.714844 226.996094 224.289062 C 228.582031 225.855469 228.59375 228.417969 227.023438 230.003906 L 224.472656 232.597656 C 223.679688 233.410156 222.628906 233.816406 221.578125 233.816406 Z M 892.449219 222.910156 C 891.4375 222.910156 890.433594 222.535156 889.644531 221.78125 L 887.015625 219.273438 C 885.394531 217.734375 885.324219 215.175781 886.859375 213.554688 C 888.40625 211.933594 890.957031 211.867188 892.574219 213.402344 L 895.253906 215.957031 C 896.863281 217.503906 896.910156 220.066406 895.359375 221.675781 C 894.570312 222.496094 893.507812 222.910156 892.449219 222.910156 Z M 239.902344 216.023438 C 238.808594 216.023438 237.722656 215.582031 236.925781 214.71875 C 235.414062 213.074219 235.515625 210.515625 237.160156 209.003906 L 239.890625 206.507812 C 241.550781 205.007812 244.105469 205.132812 245.597656 206.785156 C 247.097656 208.441406 246.972656 210.996094 245.320312 212.496094 L 242.636719 214.949219 C 241.863281 215.667969 240.878906 216.023438 239.902344 216.023438 Z M 873.550781 205.710938 C 872.617188 205.710938 871.683594 205.390625 870.917969 204.734375 L 868.148438 202.367188 C 866.449219 200.917969 866.242188 198.367188 867.6875 196.667969 C 869.132812 194.964844 871.679688 194.757812 873.386719 196.207031 L 876.191406 198.609375 C 877.882812 200.0625 878.074219 202.617188 876.617188 204.308594 C 875.816406 205.234375 874.6875 205.710938 873.550781 205.710938 Z M 259.140625 199.234375 C 257.976562 199.234375 256.824219 198.730469 256.019531 197.765625 C 254.601562 196.042969 254.84375 193.496094 256.566406 192.074219 L 259.417969 189.730469 C 261.144531 188.320312 263.6875 188.578125 265.105469 190.304688 C 266.515625 192.035156 266.257812 194.582031 264.527344 195.992188 L 261.710938 198.304688 C 260.960938 198.933594 260.046875 199.234375 259.140625 199.234375 Z M 853.765625 189.539062 C 852.90625 189.539062 852.035156 189.265625 851.300781 188.695312 L 848.410156 186.476562 C 846.632812 185.125 846.292969 182.582031 847.644531 180.808594 C 849.003906 179.03125 851.539062 178.695312 853.3125 180.046875 L 856.242188 182.296875 C 858.011719 183.660156 858.339844 186.199219 856.972656 187.96875 C 856.175781 189 854.980469 189.539062 853.765625 189.539062 Z M 279.238281 183.496094 C 278 183.496094 276.78125 182.929688 275.984375 181.859375 C 274.65625 180.0625 275.035156 177.53125 276.828125 176.203125 L 279.800781 174.019531 C 281.605469 172.703125 284.136719 173.09375 285.449219 174.898438 C 286.769531 176.699219 286.375 179.230469 284.570312 180.546875 L 281.636719 182.703125 C 280.917969 183.238281 280.074219 183.496094 279.238281 183.496094 Z M 833.136719 174.445312 C 832.339844 174.445312 831.539062 174.214844 830.835938 173.726562 L 827.835938 171.667969 C 825.992188 170.414062 825.511719 167.898438 826.765625 166.050781 C 828.019531 164.203125 830.539062 163.722656 832.382812 164.980469 L 835.441406 167.082031 C 837.277344 168.351562 837.730469 170.871094 836.460938 172.707031 C 835.675781 173.839844 834.417969 174.445312 833.136719 174.445312 Z M 300.144531 168.859375 C 298.832031 168.859375 297.546875 168.222656 296.765625 167.046875 C 295.53125 165.183594 296.046875 162.675781 297.910156 161.445312 L 301 159.421875 C 302.871094 158.210938 305.375 158.738281 306.59375 160.613281 C 307.808594 162.484375 307.277344 164.988281 305.402344 166.203125 L 302.367188 168.191406 C 301.683594 168.644531 300.910156 168.859375 300.144531 168.859375 Z M 811.730469 160.46875 C 811.007812 160.46875 810.277344 160.277344 809.617188 159.875 L 806.503906 157.976562 C 804.589844 156.820312 803.976562 154.335938 805.128906 152.425781 C 806.28125 150.515625 808.765625 149.898438 810.675781 151.054688 L 813.84375 152.984375 C 815.742188 154.152344 816.339844 156.640625 815.175781 158.546875 C 814.414062 159.785156 813.089844 160.46875 811.730469 160.46875 Z M 321.792969 155.371094 C 320.40625 155.371094 319.054688 154.65625 318.300781 153.375 C 317.171875 151.449219 317.816406 148.972656 319.742188 147.839844 L 322.929688 145.984375 C 324.859375 144.871094 327.335938 145.535156 328.453125 147.464844 C 329.570312 149.398438 328.90625 151.871094 326.972656 152.988281 L 323.835938 154.8125 C 323.191406 155.1875 322.488281 155.371094 321.792969 155.371094 Z M 789.585938 147.660156 C 788.933594 147.660156 788.269531 147.5 787.660156 147.167969 L 784.453125 145.445312 C 782.476562 144.394531 781.730469 141.949219 782.777344 139.980469 C 783.832031 138.003906 786.277344 137.261719 788.246094 138.308594 L 791.519531 140.066406 C 793.480469 141.136719 794.210938 143.585938 793.144531 145.550781 C 792.410156 146.894531 791.019531 147.660156 789.585938 147.660156 Z M 344.121094 143.0625 C 342.65625 143.0625 341.246094 142.261719 340.523438 140.875 C 339.5 138.886719 340.277344 136.449219 342.257812 135.425781 L 345.539062 133.746094 C 347.527344 132.734375 349.957031 133.527344 350.972656 135.519531 C 351.980469 137.511719 351.191406 139.945312 349.199219 140.953125 L 345.96875 142.609375 C 345.382812 142.914062 344.746094 143.0625 344.121094 143.0625 Z M 766.78125 136.058594 C 766.203125 136.058594 765.613281 135.929688 765.050781 135.667969 L 761.746094 134.113281 C 759.726562 133.167969 758.847656 130.765625 759.789062 128.738281 C 760.734375 126.71875 763.128906 125.835938 765.164062 126.78125 L 768.519531 128.359375 C 770.53125 129.316406 771.390625 131.730469 770.433594 133.746094 C 769.746094 135.207031 768.292969 136.058594 766.78125 136.058594 Z M 367.070312 131.972656 C 365.53125 131.972656 364.058594 131.089844 363.386719 129.59375 C 362.46875 127.558594 363.375 125.167969 365.410156 124.246094 L 368.769531 122.746094 C 370.820312 121.851562 373.199219 122.765625 374.105469 124.804688 C 375.007812 126.847656 374.085938 129.238281 372.042969 130.140625 L 368.730469 131.617188 C 368.191406 131.859375 367.625 131.972656 367.070312 131.972656 Z M 743.371094 125.695312 C 742.855469 125.695312 742.335938 125.597656 741.832031 125.394531 L 738.453125 124.023438 C 736.382812 123.1875 735.378906 120.835938 736.210938 118.765625 C 737.042969 116.691406 739.390625 115.691406 741.46875 116.519531 L 744.910156 117.917969 C 746.972656 118.769531 747.957031 121.128906 747.109375 123.195312 C 746.464844 124.753906 744.957031 125.695312 743.371094 125.695312 Z M 390.570312 122.140625 C 388.949219 122.140625 387.417969 121.15625 386.800781 119.554688 C 385.992188 117.476562 387.027344 115.132812 389.113281 114.328125 L 392.566406 113.003906 C 394.644531 112.214844 396.988281 113.257812 397.78125 115.347656 C 398.574219 117.4375 397.523438 119.769531 395.4375 120.5625 L 392.035156 121.867188 C 391.550781 122.050781 391.054688 122.140625 390.570312 122.140625 Z M 719.4375 116.613281 C 718.992188 116.613281 718.542969 116.539062 718.097656 116.382812 C 716.957031 115.984375 715.804688 115.585938 714.652344 115.195312 C 712.535156 114.480469 711.40625 112.183594 712.128906 110.066406 C 712.839844 107.953125 715.140625 106.820312 717.253906 107.542969 C 718.429688 107.941406 719.601562 108.347656 720.773438 108.757812 C 722.878906 109.496094 723.988281 111.800781 723.25 113.90625 C 722.667969 115.570312 721.105469 116.613281 719.4375 116.613281 Z M 414.628906 113.5625 C 412.925781 113.5625 411.34375 112.476562 410.785156 110.769531 C 410.09375 108.648438 411.253906 106.363281 413.375 105.671875 L 416.902344 104.539062 C 419.019531 103.855469 421.300781 105.042969 421.976562 107.171875 C 422.652344 109.300781 421.472656 111.570312 419.347656 112.246094 L 415.886719 113.359375 C 415.46875 113.496094 415.042969 113.5625 414.628906 113.5625 Z M 695.082031 108.855469 C 694.710938 108.855469 694.328125 108.800781 693.953125 108.695312 L 690.457031 107.699219 C 688.3125 107.097656 687.058594 104.863281 687.660156 102.710938 C 688.269531 100.554688 690.496094 99.304688 692.648438 99.914062 L 696.203125 100.925781 C 698.347656 101.550781 699.585938 103.792969 698.960938 105.933594 C 698.449219 107.703125 696.832031 108.855469 695.082031 108.855469 Z M 439.117188 106.296875 C 437.328125 106.296875 435.695312 105.105469 435.210938 103.296875 C 434.636719 101.140625 435.914062 98.925781 438.074219 98.347656 L 441.648438 97.410156 C 443.820312 96.832031 446.015625 98.144531 446.578125 100.304688 C 447.140625 102.46875 445.84375 104.671875 443.679688 105.234375 L 440.160156 106.160156 C 439.8125 106.253906 439.460938 106.296875 439.117188 106.296875 Z M 670.363281 102.425781 C 670.0625 102.425781 669.753906 102.390625 669.445312 102.320312 L 665.898438 101.511719 C 663.71875 101.023438 662.347656 98.859375 662.839844 96.679688 C 663.328125 94.5 665.5 93.136719 667.664062 93.617188 L 671.273438 94.4375 C 673.445312 94.941406 674.800781 97.117188 674.292969 99.289062 C 673.867188 101.160156 672.207031 102.425781 670.363281 102.425781 Z M 463.960938 100.371094 C 462.085938 100.371094 460.410156 99.0625 460.007812 97.15625 C 459.546875 94.972656 460.941406 92.832031 463.128906 92.371094 L 466.753906 91.621094 C 468.929688 91.175781 471.074219 92.589844 471.519531 94.785156 C 471.960938 96.96875 470.546875 99.105469 468.359375 99.550781 L 464.796875 100.285156 C 464.515625 100.339844 464.234375 100.371094 463.960938 100.371094 Z M 645.332031 97.339844 C 645.101562 97.339844 644.867188 97.316406 644.632812 97.273438 L 641.046875 96.660156 C 638.84375 96.292969 637.355469 94.207031 637.722656 92.007812 C 638.09375 89.804688 640.179688 88.320312 642.378906 88.6875 L 646.023438 89.3125 C 648.222656 89.691406 649.695312 91.792969 649.308594 93.988281 C 648.964844 95.953125 647.261719 97.339844 645.332031 97.339844 Z M 489.085938 95.789062 C 487.125 95.789062 485.402344 94.355469 485.097656 92.359375 C 484.757812 90.152344 486.269531 88.089844 488.476562 87.75 L 492.132812 87.199219 C 494.328125 86.855469 496.394531 88.402344 496.71875 90.613281 C 497.046875 92.820312 495.515625 94.875 493.308594 95.195312 L 489.707031 95.738281 C 489.496094 95.769531 489.289062 95.789062 489.085938 95.789062 Z M 620.0625 93.605469 C 619.90625 93.605469 619.738281 93.59375 619.574219 93.574219 L 615.964844 93.15625 C 613.746094 92.90625 612.148438 90.90625 612.402344 88.6875 C 612.648438 86.46875 614.585938 84.871094 616.871094 85.117188 L 620.542969 85.546875 C 622.761719 85.8125 624.34375 87.828125 624.074219 90.042969 C 623.824219 92.09375 622.082031 93.605469 620.0625 93.605469 Z M 514.421875 92.5625 C 512.375 92.5625 510.613281 91.007812 510.40625 88.921875 C 510.183594 86.699219 511.800781 84.71875 514.023438 84.496094 L 517.707031 84.140625 C 519.933594 83.972656 521.902344 85.570312 522.105469 87.796875 C 522.3125 90.019531 520.675781 91.988281 518.449219 92.195312 L 514.832031 92.542969 C 514.695312 92.554688 514.5625 92.5625 514.421875 92.5625 Z M 594.636719 91.230469 C 594.550781 91.230469 594.457031 91.226562 594.367188 91.21875 L 590.738281 90.992188 C 588.507812 90.863281 586.808594 88.949219 586.9375 86.71875 C 587.070312 84.492188 589.011719 82.761719 591.214844 82.925781 L 594.90625 83.152344 C 597.136719 83.300781 598.816406 85.226562 598.667969 87.457031 C 598.523438 89.589844 596.746094 91.230469 594.636719 91.230469 Z M 539.898438 90.421875 C 537.753906 90.421875 535.96875 88.871094 535.863281 86.699219 C 535.761719 84.46875 537.484375 82.644531 539.714844 82.539062 L 543.410156 82.414062 C 545.5625 82.371094 547.523438 84.078125 547.609375 86.3125 C 547.695312 88.542969 545.957031 90.300781 543.726562 90.390625 L 540.089844 90.421875 C 540.027344 90.421875 539.960938 90.421875 539.898438 90.421875 Z M 569.113281 90.421875 C 569.09375 90.421875 569.074219 90.421875 569.050781 90.421875 L 565.421875 90.277344 C 563.1875 90.265625 561.386719 88.390625 561.398438 86.15625 C 561.410156 83.921875 563.265625 81.9375 565.464844 82.109375 L 569.167969 82.132812 C 571.402344 82.164062 573.1875 84.101562 573.152344 86.328125 C 573.125 88.550781 571.320312 90.421875 569.113281 90.421875 Z M 569.113281 90.421875"></path> <g clip-path="url(#a)"> <path fill="#E8B64A" d="M 562.511719 1077.761719 C 278.402344 1077.761719 47.261719 846.625 47.261719 562.511719 C 47.261719 278.402344 278.402344 47.261719 562.511719 47.261719 C 846.625 47.261719 1077.765625 278.402344 1077.765625 562.511719 C 1077.765625 846.625 846.625 1077.761719 562.511719 1077.761719 Z M 562.511719 57.863281 C 284.25 57.863281 57.863281 284.25 57.863281 562.511719 C 57.863281 840.777344 284.25 1067.164062 562.511719 1067.164062 C 840.78125 1067.164062 1067.167969 840.78125 1067.167969 562.511719 C 1067.167969 284.246094 840.777344 57.863281 562.511719 57.863281 Z M 562.511719 57.863281"></path> </g> <path fill="#FFF" d="M 562.285156 1105.492188 C 417.136719 1105.492188 280.464844 1049 177.90625 946.222656 C 75.128906 843.664062 18.636719 706.992188 18.636719 561.847656 C 18.636719 416.699219 75.128906 280.027344 177.90625 177.46875 C 280.464844 74.691406 417.136719 18.199219 562.285156 18.199219 C 707.429688 18.199219 844.101562 74.691406 946.660156 177.46875 C 1049.4375 280.246094 1105.929688 416.699219 1105.929688 561.847656 C 1105.929688 706.992188 1049.4375 843.664062 946.660156 946.222656 C 844.101562 1049 707.429688 1105.492188 562.285156 1105.492188 Z M 562.285156 50.792969 C 425.828125 50.792969 297.414062 104.027344 200.9375 200.5 C 104.464844 296.976562 51.230469 425.390625 51.230469 561.847656 C 51.230469 698.300781 104.464844 826.714844 200.9375 923.191406 C 297.414062 1019.664062 425.828125 1072.902344 562.285156 1072.902344 C 698.738281 1072.902344 827.15625 1019.664062 923.628906 923.191406 C 1020.105469 826.714844 1073.339844 698.300781 1073.339844 561.847656 C 1073.339844 425.390625 1020.105469 296.976562 923.628906 200.5 C 827.15625 104.027344 698.738281 50.792969 562.285156 50.792969 Z M 562.285156 50.792969"></path> <g fill="#FFE48D"> <g> <g> <path d="M 6.84375 0 L 6.84375 -69.359375 L 49.546875 -69.359375 L 49.546875 -61.53125 L 15.0625 -61.53125 L 15.0625 -38.84375 L 45.6875 -38.84375 L 45.6875 -31.015625 L 15.0625 -31.015625 L 15.0625 0 Z M 6.84375 0" transform="translate(223.106 572.458)"></path> </g> </g> </g> <g fill="#FFE48D"> <g> <g> <path d="M 6.84375 0 L 6.84375 -69.359375 L 15.0625 -69.359375 L 15.0625 -7.828125 L 50.9375 -7.828125 L 50.9375 0 Z M 6.84375 0" transform="translate(285.833 572.458)"></path> </g> </g> </g> <g fill="#FFE48D"> <g> <g> <path d="M 6.84375 0 L 6.84375 -69.359375 L 49.546875 -69.359375 L 49.546875 -61.53125 L 15.0625 -61.53125 L 15.0625 -38.84375 L 45.6875 -38.84375 L 45.6875 -31.015625 L 15.0625 -31.015625 L 15.0625 -7.828125 L 50.9375 -7.828125 L 50.9375 0 Z M 6.84375 0" transform="translate(349.154 572.458)"></path> </g> </g> </g> <g fill="#FFE48D"> <g> <g> <path d="M 32.296875 -35.375 C 28.597656 -41.0625 24.914062 -46.726562 21.25 -52.375 C 17.582031 -58.019531 13.898438 -63.679688 10.203125 -69.359375 L 20.3125 -69.359375 C 23.019531 -65.203125 25.710938 -61.054688 28.390625 -56.921875 C 31.066406 -52.796875 33.757812 -48.65625 36.46875 -44.5 C 36.664062 -44.03125 36.878906 -43.582031 37.109375 -43.15625 C 37.335938 -42.726562 37.550781 -42.28125 37.75 -41.8125 C 37.945312 -42.28125 38.160156 -42.726562 38.390625 -43.15625 C 38.628906 -43.582031 38.847656 -44.03125 39.046875 -44.5 C 41.753906 -48.65625 44.441406 -52.796875 47.109375 -56.921875 C 49.785156 -61.054688 52.476562 -65.203125 55.1875 -69.359375 L 65.296875 -69.359375 C 61.535156 -63.546875 57.785156 -57.78125 54.046875 -52.0625 C 50.316406 -46.351562 46.570312 -40.59375 42.8125 -34.78125 C 46.570312 -28.96875 50.351562 -23.171875 54.15625 -17.390625 C 57.957031 -11.609375 61.738281 -5.8125 65.5 0 L 55.296875 0 L 38.640625 -25.5625 C 38.378906 -26.03125 38.148438 -26.492188 37.953125 -26.953125 C 37.753906 -27.410156 37.523438 -27.875 37.265625 -28.34375 C 37.066406 -27.875 36.847656 -27.410156 36.609375 -26.953125 C 36.378906 -26.492188 36.164062 -26.03125 35.96875 -25.5625 C 33.195312 -21.269531 30.4375 -17.007812 27.6875 -12.78125 C 24.945312 -8.550781 22.191406 -4.289062 19.421875 0 L 9.21875 0 C 13.113281 -5.945312 16.957031 -11.84375 20.75 -17.6875 C 24.550781 -23.53125 28.398438 -29.425781 32.296875 -35.375 Z M 32.296875 -35.375" transform="translate(413.268 572.458)"></path> </g> </g> </g> <g fill="#FFE48D"> <g> <g> <path d="M 32.296875 -35.375 C 28.597656 -41.0625 24.914062 -46.726562 21.25 -52.375 C 17.582031 -58.019531 13.898438 -63.679688 10.203125 -69.359375 L 20.3125 -69.359375 C 23.019531 -65.203125 25.710938 -61.054688 28.390625 -56.921875 C 31.066406 -52.796875 33.757812 -48.65625 36.46875 -44.5 C 36.664062 -44.03125 36.878906 -43.582031 37.109375 -43.15625 C 37.335938 -42.726562 37.550781 -42.28125 37.75 -41.8125 C 37.945312 -42.28125 38.160156 -42.726562 38.390625 -43.15625 C 38.628906 -43.582031 38.847656 -44.03125 39.046875 -44.5 C 41.753906 -48.65625 44.441406 -52.796875 47.109375 -56.921875 C 49.785156 -61.054688 52.476562 -65.203125 55.1875 -69.359375 L 65.296875 -69.359375 C 61.535156 -63.546875 57.785156 -57.78125 54.046875 -52.0625 C 50.316406 -46.351562 46.570312 -40.59375 42.8125 -34.78125 C 46.570312 -28.96875 50.351562 -23.171875 54.15625 -17.390625 C 57.957031 -11.609375 61.738281 -5.8125 65.5 0 L 55.296875 0 L 38.640625 -25.5625 C 38.378906 -26.03125 38.148438 -26.492188 37.953125 -26.953125 C 37.753906 -27.410156 37.523438 -27.875 37.265625 -28.34375 C 37.066406 -27.875 36.847656 -27.410156 36.609375 -26.953125 C 36.378906 -26.492188 36.164062 -26.03125 35.96875 -25.5625 C 33.195312 -21.269531 30.4375 -17.007812 27.6875 -12.78125 C 24.945312 -8.550781 22.191406 -4.289062 19.421875 0 L 9.21875 0 C 13.113281 -5.945312 16.957031 -11.84375 20.75 -17.6875 C 24.550781 -23.53125 28.398438 -29.425781 32.296875 -35.375 Z M 32.296875 -35.375" transform="translate(487.192 572.458)"></path> </g> </g> </g> <g fill="#FFE48D"> <g> <g> <path d="M 44.5 -62.53125 C 43.695312 -61.539062 42.914062 -60.546875 42.15625 -59.546875 C 41.40625 -58.554688 40.628906 -57.566406 39.828125 -56.578125 C 39.304688 -57.109375 38.613281 -57.6875 37.75 -58.3125 C 36.894531 -58.945312 35.921875 -59.523438 34.828125 -60.046875 C 33.742188 -60.578125 32.523438 -61.023438 31.171875 -61.390625 C 29.816406 -61.753906 28.378906 -61.9375 26.859375 -61.9375 C 23.023438 -61.9375 20.179688 -60.84375 18.328125 -58.65625 C 16.484375 -56.476562 15.5625 -53.90625 15.5625 -50.9375 C 15.5625 -49.28125 15.875 -47.890625 16.5 -46.765625 C 17.125 -45.648438 17.945312 -44.710938 18.96875 -43.953125 C 20 -43.191406 21.15625 -42.546875 22.4375 -42.015625 C 23.726562 -41.484375 25.066406 -40.988281 26.453125 -40.53125 C 28.640625 -39.738281 30.988281 -38.796875 33.5 -37.703125 C 36.007812 -36.609375 38.335938 -35.21875 40.484375 -33.53125 C 42.628906 -31.851562 44.410156 -29.789062 45.828125 -27.34375 C 47.253906 -24.90625 47.96875 -21.96875 47.96875 -18.53125 C 47.96875 -15.5625 47.421875 -12.882812 46.328125 -10.5 C 45.234375 -8.125 43.742188 -6.09375 41.859375 -4.40625 C 39.984375 -2.71875 37.789062 -1.425781 35.28125 -0.53125 C 32.769531 0.351562 30.125 0.796875 27.34375 0.796875 C 24.832031 0.796875 22.390625 0.453125 20.015625 -0.234375 C 17.640625 -0.929688 15.457031 -1.828125 13.46875 -2.921875 C 11.488281 -4.015625 9.722656 -5.21875 8.171875 -6.53125 C 6.617188 -7.851562 5.414062 -9.175781 4.5625 -10.5 L 9.71875 -15.65625 C 10.570312 -14.726562 11.59375 -13.753906 12.78125 -12.734375 C 13.96875 -11.710938 15.253906 -10.769531 16.640625 -9.90625 C 18.035156 -9.050781 19.554688 -8.359375 21.203125 -7.828125 C 22.859375 -7.296875 24.644531 -7.03125 26.5625 -7.03125 C 28.28125 -7.03125 29.929688 -7.273438 31.515625 -7.765625 C 33.097656 -8.265625 34.5 -8.992188 35.71875 -9.953125 C 36.945312 -10.910156 37.921875 -12.113281 38.640625 -13.5625 C 39.367188 -15.019531 39.734375 -16.707031 39.734375 -18.625 C 39.734375 -21.269531 39.085938 -23.414062 37.796875 -25.0625 C 36.515625 -26.71875 34.929688 -28.085938 33.046875 -29.171875 C 31.160156 -30.265625 29.191406 -31.140625 27.140625 -31.796875 C 25.097656 -32.460938 23.316406 -33.09375 21.796875 -33.6875 C 20.609375 -34.15625 19.1875 -34.785156 17.53125 -35.578125 C 15.882812 -36.367188 14.316406 -37.441406 12.828125 -38.796875 C 11.347656 -40.148438 10.078125 -41.832031 9.015625 -43.84375 C 7.960938 -45.863281 7.398438 -48.328125 7.328125 -51.234375 C 7.265625 -53.410156 7.5625 -55.585938 8.21875 -57.765625 C 8.882812 -59.953125 9.976562 -61.9375 11.5 -63.71875 C 13.019531 -65.5 15.035156 -66.953125 17.546875 -68.078125 C 20.054688 -69.203125 23.125 -69.765625 26.75 -69.765625 C 29.394531 -69.765625 32.132812 -69.300781 34.96875 -68.375 C 37.8125 -67.445312 40.988281 -65.5 44.5 -62.53125 Z M 44.5 -62.53125" transform="translate(561.116 572.458)"></path> </g> </g> </g> <g fill="#FFE48D"> <g> <g> <path d="M 6.140625 -34.578125 C 6.140625 -39.398438 7.0625 -43.972656 8.90625 -48.296875 C 10.757812 -52.628906 13.289062 -56.414062 16.5 -59.65625 C 19.707031 -62.894531 23.457031 -65.453125 27.75 -67.328125 C 32.039062 -69.210938 36.628906 -70.15625 41.515625 -70.15625 C 46.335938 -70.15625 50.910156 -69.210938 55.234375 -67.328125 C 59.566406 -65.453125 63.351562 -62.894531 66.59375 -59.65625 C 69.832031 -56.414062 72.390625 -52.628906 74.265625 -48.296875 C 76.148438 -43.972656 77.09375 -39.398438 77.09375 -34.578125 C 77.09375 -29.691406 76.148438 -25.101562 74.265625 -20.8125 C 72.390625 -16.519531 69.832031 -12.769531 66.59375 -9.5625 C 63.351562 -6.351562 59.566406 -3.820312 55.234375 -1.96875 C 50.910156 -0.125 46.335938 0.796875 41.515625 0.796875 C 36.628906 0.796875 32.039062 -0.125 27.75 -1.96875 C 23.457031 -3.820312 19.707031 -6.351562 16.5 -9.5625 C 13.289062 -12.769531 10.757812 -16.519531 8.90625 -20.8125 C 7.0625 -25.101562 6.140625 -29.691406 6.140625 -34.578125 Z M 14.375 -34.578125 C 14.375 -30.753906 15.082031 -27.171875 16.5 -23.828125 C 17.914062 -20.492188 19.863281 -17.585938 22.34375 -15.109375 C 24.820312 -12.628906 27.710938 -10.660156 31.015625 -9.203125 C 34.316406 -7.753906 37.851562 -7.03125 41.625 -7.03125 C 45.382812 -7.03125 48.914062 -7.753906 52.21875 -9.203125 C 55.519531 -10.660156 58.410156 -12.628906 60.890625 -15.109375 C 63.367188 -17.585938 65.316406 -20.492188 66.734375 -23.828125 C 68.160156 -27.171875 68.875 -30.753906 68.875 -34.578125 C 68.875 -38.410156 68.160156 -41.992188 66.734375 -45.328125 C 65.316406 -48.671875 63.367188 -51.597656 60.890625 -54.109375 C 58.410156 -56.617188 55.519531 -58.597656 52.21875 -60.046875 C 48.914062 -61.503906 45.382812 -62.234375 41.625 -62.234375 C 37.851562 -62.234375 34.316406 -61.503906 31.015625 -60.046875 C 27.710938 -58.597656 24.820312 -56.617188 22.34375 -54.109375 C 19.863281 -51.597656 17.914062 -48.671875 16.5 -45.328125 C 15.082031 -41.992188 14.375 -38.410156 14.375 -34.578125 Z M 14.375 -34.578125" transform="translate(621.465 572.458)"></path> </g> </g> </g> <g fill="#FFE48D"> <g> <g> <path d="M 6.84375 0 L 6.84375 -69.359375 L 15.0625 -69.359375 L 15.0625 -7.828125 L 50.9375 -7.828125 L 50.9375 0 Z M 6.84375 0" transform="translate(709.262 572.458)"></path> </g> </g> </g> <g fill="#FFE48D"> <g> <g> <path d="M 37.65625 -51.03125 L 36.765625 -54.296875 C 35.835938 -50.992188 34.679688 -47.789062 33.296875 -44.6875 C 31.910156 -41.582031 30.554688 -38.445312 29.234375 -35.28125 L 44.296875 -35.28125 C 43.171875 -37.914062 42.0625 -40.535156 40.96875 -43.140625 C 39.882812 -45.753906 38.78125 -48.382812 37.65625 -51.03125 Z M 67.484375 0 L 59.265625 0 C 57.347656 -4.5625 55.410156 -9.132812 53.453125 -13.71875 C 51.503906 -18.3125 49.570312 -22.890625 47.65625 -27.453125 L 25.859375 -27.453125 C 23.941406 -22.890625 22.007812 -18.3125 20.0625 -13.71875 C 18.113281 -9.132812 16.179688 -4.5625 14.265625 0 L 6.046875 0 C 11.203125 -12.15625 16.320312 -24.242188 21.40625 -36.265625 C 26.488281 -48.285156 31.609375 -60.375 36.765625 -72.53125 C 41.921875 -60.375 47.039062 -48.285156 52.125 -36.265625 C 57.207031 -24.242188 62.328125 -12.15625 67.484375 0 Z M 67.484375 0" transform="translate(772.583 572.458)"></path> </g> </g> </g> <g fill="#FFE48D"> <g> <g> <path d="M 13.96875 -38.84375 L 22.59375 -38.84375 C 25.5 -38.84375 27.894531 -39.222656 29.78125 -39.984375 C 31.664062 -40.742188 33.164062 -41.6875 34.28125 -42.8125 C 35.40625 -43.9375 36.195312 -45.191406 36.65625 -46.578125 C 37.125 -47.960938 37.359375 -49.28125 37.359375 -50.53125 C 37.359375 -51.988281 36.976562 -53.394531 36.21875 -54.75 C 35.457031 -56.101562 34.429688 -57.289062 33.140625 -58.3125 C 31.859375 -59.34375 30.304688 -60.15625 28.484375 -60.75 C 26.671875 -61.34375 24.738281 -61.640625 22.6875 -61.640625 L 13.96875 -61.640625 Z M 5.75 0 L 5.75 -69.359375 L 22.09375 -69.359375 C 24.34375 -69.359375 26.835938 -69.007812 29.578125 -68.3125 C 32.316406 -67.625 34.875 -66.519531 37.25 -65 C 39.632812 -63.476562 41.617188 -61.53125 43.203125 -59.15625 C 44.785156 -56.78125 45.578125 -53.90625 45.578125 -50.53125 C 45.578125 -45.582031 44.335938 -41.4375 41.859375 -38.09375 C 39.390625 -34.757812 35.773438 -32.566406 31.015625 -31.515625 L 45.875 0 L 36.96875 0 L 22.390625 -30.921875 L 13.96875 -30.921875 L 13.96875 0 Z M 5.75 0" transform="translate(850.471 572.458)"></path> </g> </g> </g> <g fill="#A2FFD5"> <g> <g> <path d="M 10.65625 0.265625 C 9.488281 0.265625 8.40625 0.101562 7.40625 -0.21875 C 6.40625 -0.550781 5.535156 -1.035156 4.796875 -1.671875 C 4.066406 -2.304688 3.492188 -3.097656 3.078125 -4.046875 C 2.671875 -5.003906 2.46875 -6.101562 2.46875 -7.34375 L 2.46875 -22.734375 L 5.171875 -22.734375 L 5.171875 -7.4375 C 5.171875 -6.613281 5.304688 -5.878906 5.578125 -5.234375 C 5.847656 -4.597656 6.222656 -4.0625 6.703125 -3.625 C 7.191406 -3.195312 7.769531 -2.867188 8.4375 -2.640625 C 9.113281 -2.421875 9.851562 -2.3125 10.65625 -2.3125 C 11.457031 -2.3125 12.191406 -2.421875 12.859375 -2.640625 C 13.535156 -2.867188 14.113281 -3.195312 14.59375 -3.625 C 15.082031 -4.0625 15.46875 -4.597656 15.75 -5.234375 C 16.03125 -5.878906 16.171875 -6.613281 16.171875 -7.4375 L 16.171875 -22.734375 L 18.875 -22.734375 L 18.875 -7.34375 C 18.875 -6.101562 18.660156 -5.003906 18.234375 -4.046875 C 17.816406 -3.097656 17.238281 -2.304688 16.5 -1.671875 C 15.757812 -1.035156 14.890625 -0.550781 13.890625 -0.21875 C 12.898438 0.101562 11.820312 0.265625 10.65625 0.265625 Z M 10.65625 0.265625" transform="translate(311.46 679.905)"></path> </g> </g> </g> <g fill="#A2FFD5"> <g> <g> <path d="M 31.3125 -22.734375 L 34.015625 -22.734375 C 32.328125 -18.753906 30.644531 -14.789062 28.96875 -10.84375 C 27.300781 -6.90625 25.625 -2.941406 23.9375 1.046875 L 18.1875 -12.5 C 18.144531 -12.695312 18.09375 -12.882812 18.03125 -13.0625 C 17.96875 -13.25 17.910156 -13.441406 17.859375 -13.640625 C 17.554688 -12.429688 17.164062 -11.203125 16.6875 -9.953125 C 16.21875 -8.710938 15.703125 -7.472656 15.140625 -6.234375 C 14.578125 -5.003906 14.007812 -3.773438 13.4375 -2.546875 C 12.863281 -1.328125 12.328125 -0.128906 11.828125 1.046875 C 10.140625 -2.941406 8.457031 -6.90625 6.78125 -10.84375 C 5.113281 -14.789062 3.4375 -18.753906 1.75 -22.734375 L 4.453125 -22.734375 C 5.640625 -19.921875 6.816406 -17.132812 7.984375 -14.375 C 9.160156 -11.613281 10.34375 -8.828125 11.53125 -6.015625 L 11.828125 -4.9375 C 12.085938 -5.914062 12.40625 -6.882812 12.78125 -7.84375 C 13.15625 -8.8125 13.554688 -9.773438 13.984375 -10.734375 C 14.410156 -11.703125 14.84375 -12.660156 15.28125 -13.609375 C 15.726562 -14.566406 16.144531 -15.507812 16.53125 -16.4375 C 16.101562 -17.5 15.660156 -18.546875 15.203125 -19.578125 C 14.742188 -20.617188 14.300781 -21.671875 13.875 -22.734375 L 16.5625 -22.734375 C 17.757812 -19.921875 18.941406 -17.132812 20.109375 -14.375 C 21.273438 -11.613281 22.457031 -8.828125 23.65625 -6.015625 L 23.9375 -4.9375 L 24.234375 -6.015625 C 25.421875 -8.828125 26.597656 -11.613281 27.765625 -14.375 C 28.941406 -17.132812 30.125 -19.921875 31.3125 -22.734375 Z M 31.3125 -22.734375" transform="translate(331.763 679.905)"></path> </g> </g> </g> <g fill="#A2FFD5"> <g> <g> <path d="M 4.578125 -12.734375 L 7.40625 -12.734375 C 8.351562 -12.734375 9.132812 -12.859375 9.75 -13.109375 C 10.375 -13.359375 10.867188 -13.664062 11.234375 -14.03125 C 11.609375 -14.394531 11.867188 -14.804688 12.015625 -15.265625 C 12.171875 -15.722656 12.25 -16.15625 12.25 -16.5625 C 12.25 -17.039062 12.125 -17.5 11.875 -17.9375 C 11.625 -18.382812 11.285156 -18.773438 10.859375 -19.109375 C 10.441406 -19.453125 9.9375 -19.71875 9.34375 -19.90625 C 8.75 -20.101562 8.113281 -20.203125 7.4375 -20.203125 L 4.578125 -20.203125 Z M 1.890625 0 L 1.890625 -22.734375 L 7.25 -22.734375 C 7.976562 -22.734375 8.789062 -22.617188 9.6875 -22.390625 C 10.59375 -22.171875 11.4375 -21.8125 12.21875 -21.3125 C 13 -20.8125 13.644531 -20.171875 14.15625 -19.390625 C 14.675781 -18.609375 14.9375 -17.664062 14.9375 -16.5625 C 14.9375 -14.59375 14.351562 -13.03125 13.1875 -11.875 C 12.019531 -10.71875 10.332031 -10.140625 8.125 -10.140625 L 4.578125 -10.140625 L 4.578125 0 Z M 1.890625 0" transform="translate(375.75 679.905)"></path> </g> </g> </g> <g fill="#A2FFD5"> <g> <g> <path d="M 12.34375 -16.734375 L 12.046875 -17.796875 C 11.742188 -16.710938 11.363281 -15.660156 10.90625 -14.640625 C 10.457031 -13.628906 10.015625 -12.601562 9.578125 -11.5625 L 14.515625 -11.5625 C 14.148438 -12.425781 13.785156 -13.285156 13.421875 -14.140625 C 13.066406 -15.003906 12.707031 -15.867188 12.34375 -16.734375 Z M 22.125 0 L 19.421875 0 C 18.796875 -1.488281 18.160156 -2.984375 17.515625 -4.484375 C 16.878906 -5.992188 16.25 -7.5 15.625 -9 L 8.484375 -9 C 7.847656 -7.5 7.210938 -5.992188 6.578125 -4.484375 C 5.941406 -2.984375 5.304688 -1.488281 4.671875 0 L 1.984375 0 C 3.671875 -3.988281 5.347656 -7.953125 7.015625 -11.890625 C 8.679688 -15.828125 10.359375 -19.789062 12.046875 -23.78125 C 13.734375 -19.789062 15.410156 -15.828125 17.078125 -11.890625 C 18.753906 -7.953125 20.4375 -3.988281 22.125 0 Z M 22.125 0" transform="translate(390.759 679.905)"></path> </g> </g> </g> <g fill="#A2FFD5"> <g> <g> <path d="M 4.578125 -12.734375 L 7.40625 -12.734375 C 8.351562 -12.734375 9.132812 -12.859375 9.75 -13.109375 C 10.375 -13.359375 10.867188 -13.664062 11.234375 -14.03125 C 11.609375 -14.394531 11.867188 -14.804688 12.015625 -15.265625 C 12.171875 -15.722656 12.25 -16.15625 12.25 -16.5625 C 12.25 -17.039062 12.125 -17.5 11.875 -17.9375 C 11.625 -18.382812 11.285156 -18.773438 10.859375 -19.109375 C 10.441406 -19.453125 9.9375 -19.71875 9.34375 -19.90625 C 8.75 -20.101562 8.113281 -20.203125 7.4375 -20.203125 L 4.578125 -20.203125 Z M 1.890625 0 L 1.890625 -22.734375 L 7.25 -22.734375 C 7.976562 -22.734375 8.789062 -22.617188 9.6875 -22.390625 C 10.59375 -22.171875 11.4375 -21.8125 12.21875 -21.3125 C 13 -20.8125 13.644531 -20.171875 14.15625 -19.390625 C 14.675781 -18.609375 14.9375 -17.664062 14.9375 -16.5625 C 14.9375 -14.9375 14.53125 -13.578125 13.71875 -12.484375 C 12.90625 -11.390625 11.722656 -10.671875 10.171875 -10.328125 L 15.046875 0 L 12.109375 0 L 7.34375 -10.140625 L 4.578125 -10.140625 L 4.578125 0 Z M 1.890625 0" transform="translate(413.922 679.905)"></path> </g> </g> </g> <g fill="#A2FFD5"> <g> <g> <path d="M 17.96875 -22.734375 L 17.96875 -20.171875 L 10.359375 -20.171875 L 10.359375 0 L 7.671875 0 L 7.671875 -20.171875 L 0 -20.171875 L 0 -22.734375 Z M 17.96875 -22.734375" transform="translate(429.905 679.905)"></path> </g> </g> </g> <g fill="#A2FFD5"> <g> <g> <path d="M 23.09375 -22.734375 L 23.09375 1.046875 C 20.300781 -1.921875 17.53125 -4.867188 14.78125 -7.796875 C 12.03125 -10.722656 9.257812 -13.664062 6.46875 -16.625 C 6.351562 -16.78125 6.25 -16.921875 6.15625 -17.046875 C 6.0625 -17.179688 5.957031 -17.320312 5.84375 -17.46875 C 5.863281 -17.300781 5.878906 -17.128906 5.890625 -16.953125 C 5.898438 -16.785156 5.914062 -16.613281 5.9375 -16.4375 L 5.9375 0 L 3.25 0 L 3.25 -23.78125 C 6.039062 -20.75 8.8125 -17.742188 11.5625 -14.765625 C 14.3125 -11.785156 17.082031 -8.78125 19.875 -5.75 C 19.988281 -5.59375 20.09375 -5.445312 20.1875 -5.3125 C 20.28125 -5.1875 20.382812 -5.050781 20.5 -4.90625 C 20.476562 -5.082031 20.460938 -5.253906 20.453125 -5.421875 C 20.441406 -5.597656 20.425781 -5.769531 20.40625 -5.9375 L 20.40625 -22.734375 Z M 23.09375 -22.734375" transform="translate(446.993 679.905)"></path> </g> </g> </g> <g fill="#A2FFD5"> <g> <g> <path d="M 2.234375 0 L 2.234375 -22.734375 L 16.234375 -22.734375 L 16.234375 -20.171875 L 4.9375 -20.171875 L 4.9375 -12.734375 L 14.96875 -12.734375 L 14.96875 -10.171875 L 4.9375 -10.171875 L 4.9375 -2.5625 L 16.703125 -2.5625 L 16.703125 0 Z M 2.234375 0" transform="translate(472.528 679.905)"></path> </g> </g> </g> <g fill="#A2FFD5"> <g> <g> <path d="M 4.578125 -12.734375 L 7.40625 -12.734375 C 8.351562 -12.734375 9.132812 -12.859375 9.75 -13.109375 C 10.375 -13.359375 10.867188 -13.664062 11.234375 -14.03125 C 11.609375 -14.394531 11.867188 -14.804688 12.015625 -15.265625 C 12.171875 -15.722656 12.25 -16.15625 12.25 -16.5625 C 12.25 -17.039062 12.125 -17.5 11.875 -17.9375 C 11.625 -18.382812 11.285156 -18.773438 10.859375 -19.109375 C 10.441406 -19.453125 9.9375 -19.71875 9.34375 -19.90625 C 8.75 -20.101562 8.113281 -20.203125 7.4375 -20.203125 L 4.578125 -20.203125 Z M 1.890625 0 L 1.890625 -22.734375 L 7.25 -22.734375 C 7.976562 -22.734375 8.789062 -22.617188 9.6875 -22.390625 C 10.59375 -22.171875 11.4375 -21.8125 12.21875 -21.3125 C 13 -20.8125 13.644531 -20.171875 14.15625 -19.390625 C 14.675781 -18.609375 14.9375 -17.664062 14.9375 -16.5625 C 14.9375 -14.9375 14.53125 -13.578125 13.71875 -12.484375 C 12.90625 -11.390625 11.722656 -10.671875 10.171875 -10.328125 L 15.046875 0 L 12.109375 0 L 7.34375 -10.140625 L 4.578125 -10.140625 L 4.578125 0 Z M 1.890625 0" transform="translate(491.175 679.905)"></path> </g> </g> </g> <g fill="#A2FFD5"> <g> <g> <path d="M 3.21875 -22.734375 L 5.90625 -22.734375 L 5.90625 0 L 3.21875 0 Z M 3.21875 -22.734375" transform="translate(516.027 679.905)"></path> </g> </g> </g> <g fill="#A2FFD5"> <g> <g> <path d="M 23.09375 -22.734375 L 23.09375 1.046875 C 20.300781 -1.921875 17.53125 -4.867188 14.78125 -7.796875 C 12.03125 -10.722656 9.257812 -13.664062 6.46875 -16.625 C 6.351562 -16.78125 6.25 -16.921875 6.15625 -17.046875 C 6.0625 -17.179688 5.957031 -17.320312 5.84375 -17.46875 C 5.863281 -17.300781 5.878906 -17.128906 5.890625 -16.953125 C 5.898438 -16.785156 5.914062 -16.613281 5.9375 -16.4375 L 5.9375 0 L 3.25 0 L 3.25 -23.78125 C 6.039062 -20.75 8.8125 -17.742188 11.5625 -14.765625 C 14.3125 -11.785156 17.082031 -8.78125 19.875 -5.75 C 19.988281 -5.59375 20.09375 -5.445312 20.1875 -5.3125 C 20.28125 -5.1875 20.382812 -5.050781 20.5 -4.90625 C 20.476562 -5.082031 20.460938 -5.253906 20.453125 -5.421875 C 20.441406 -5.597656 20.425781 -5.769531 20.40625 -5.9375 L 20.40625 -22.734375 Z M 23.09375 -22.734375" transform="translate(524.181 679.905)"></path> </g> </g> </g> <g fill="#A2FFD5"> <g> <g> <path d="M 6.828125 -22.734375 L 19.84375 -22.734375 L 19.84375 -20.171875 C 17.507812 -17.222656 15.191406 -14.289062 12.890625 -11.375 C 10.597656 -8.46875 8.28125 -5.539062 5.9375 -2.59375 L 20.796875 -2.59375 L 20.796875 0 L 2.625 0 L 2.625 -2.59375 C 4.96875 -5.539062 7.285156 -8.46875 9.578125 -11.375 C 11.878906 -14.289062 14.195312 -17.222656 16.53125 -20.171875 L 5.5625 -20.171875 C 4.882812 -20.171875 4.3125 -20.363281 3.84375 -20.75 C 3.382812 -21.144531 3.15625 -21.65625 3.15625 -22.28125 L 3.15625 -23.875 L 5.84375 -23.875 L 5.84375 -23.484375 C 5.84375 -23.140625 5.910156 -22.925781 6.046875 -22.84375 C 6.191406 -22.769531 6.453125 -22.734375 6.828125 -22.734375 Z M 6.828125 -22.734375" transform="translate(558.584 679.905)"></path> </g> </g> </g> <g fill="#A2FFD5"> <g> <g> <path d="M 2.015625 -11.34375 C 2.015625 -12.914062 2.316406 -14.410156 2.921875 -15.828125 C 3.523438 -17.253906 4.351562 -18.492188 5.40625 -19.546875 C 6.457031 -20.609375 7.6875 -21.445312 9.09375 -22.0625 C 10.5 -22.6875 12.003906 -23 13.609375 -23 C 15.191406 -23 16.691406 -22.6875 18.109375 -22.0625 C 19.523438 -21.445312 20.765625 -20.609375 21.828125 -19.546875 C 22.890625 -18.492188 23.726562 -17.253906 24.34375 -15.828125 C 24.957031 -14.410156 25.265625 -12.914062 25.265625 -11.34375 C 25.265625 -9.738281 24.957031 -8.226562 24.34375 -6.8125 C 23.726562 -5.40625 22.890625 -4.175781 21.828125 -3.125 C 20.765625 -2.082031 19.523438 -1.253906 18.109375 -0.640625 C 16.691406 -0.0351562 15.191406 0.265625 13.609375 0.265625 C 12.003906 0.265625 10.5 -0.0351562 9.09375 -0.640625 C 7.6875 -1.253906 6.457031 -2.082031 5.40625 -3.125 C 4.351562 -4.175781 3.523438 -5.40625 2.921875 -6.8125 C 2.316406 -8.226562 2.015625 -9.738281 2.015625 -11.34375 Z M 4.703125 -11.34375 C 4.703125 -10.082031 4.9375 -8.90625 5.40625 -7.8125 C 5.875 -6.71875 6.515625 -5.765625 7.328125 -4.953125 C 8.140625 -4.140625 9.085938 -3.492188 10.171875 -3.015625 C 11.253906 -2.546875 12.410156 -2.3125 13.640625 -2.3125 C 14.878906 -2.3125 16.039062 -2.546875 17.125 -3.015625 C 18.207031 -3.492188 19.15625 -4.140625 19.96875 -4.953125 C 20.78125 -5.765625 21.414062 -6.71875 21.875 -7.8125 C 22.34375 -8.90625 22.578125 -10.082031 22.578125 -11.34375 C 22.578125 -12.59375 22.34375 -13.765625 21.875 -14.859375 C 21.414062 -15.953125 20.78125 -16.910156 19.96875 -17.734375 C 19.15625 -18.554688 18.207031 -19.207031 17.125 -19.6875 C 16.039062 -20.164062 14.878906 -20.40625 13.640625 -20.40625 C 12.410156 -20.40625 11.253906 -20.164062 10.171875 -19.6875 C 9.085938 -19.207031 8.140625 -18.554688 7.328125 -17.734375 C 6.515625 -16.910156 5.875 -15.953125 5.40625 -14.859375 C 4.9375 -13.765625 4.703125 -12.59375 4.703125 -11.34375 Z M 4.703125 -11.34375" transform="translate(580.448 679.905)"></path> </g> </g> </g> <g fill="#A2FFD5"> <g> <g> <path d="M 23.09375 -22.734375 L 23.09375 1.046875 C 20.300781 -1.921875 17.53125 -4.867188 14.78125 -7.796875 C 12.03125 -10.722656 9.257812 -13.664062 6.46875 -16.625 C 6.351562 -16.78125 6.25 -16.921875 6.15625 -17.046875 C 6.0625 -17.179688 5.957031 -17.320312 5.84375 -17.46875 C 5.863281 -17.300781 5.878906 -17.128906 5.890625 -16.953125 C 5.898438 -16.785156 5.914062 -16.613281 5.9375 -16.4375 L 5.9375 0 L 3.25 0 L 3.25 -23.78125 C 6.039062 -20.75 8.8125 -17.742188 11.5625 -14.765625 C 14.3125 -11.785156 17.082031 -8.78125 19.875 -5.75 C 19.988281 -5.59375 20.09375 -5.445312 20.1875 -5.3125 C 20.28125 -5.1875 20.382812 -5.050781 20.5 -4.90625 C 20.476562 -5.082031 20.460938 -5.253906 20.453125 -5.421875 C 20.441406 -5.597656 20.425781 -5.769531 20.40625 -5.9375 L 20.40625 -22.734375 Z M 23.09375 -22.734375" transform="translate(606.86 679.905)"></path> </g> </g> </g> <g fill="#A2FFD5"> <g> <g> <path d="M 23.09375 -22.734375 L 23.09375 1.046875 C 20.300781 -1.921875 17.53125 -4.867188 14.78125 -7.796875 C 12.03125 -10.722656 9.257812 -13.664062 6.46875 -16.625 C 6.351562 -16.78125 6.25 -16.921875 6.15625 -17.046875 C 6.0625 -17.179688 5.957031 -17.320312 5.84375 -17.46875 C 5.863281 -17.300781 5.878906 -17.128906 5.890625 -16.953125 C 5.898438 -16.785156 5.914062 -16.613281 5.9375 -16.4375 L 5.9375 0 L 3.25 0 L 3.25 -23.78125 C 6.039062 -20.75 8.8125 -17.742188 11.5625 -14.765625 C 14.3125 -11.785156 17.082031 -8.78125 19.875 -5.75 C 19.988281 -5.59375 20.09375 -5.445312 20.1875 -5.3125 C 20.28125 -5.1875 20.382812 -5.050781 20.5 -4.90625 C 20.476562 -5.082031 20.460938 -5.253906 20.453125 -5.421875 C 20.441406 -5.597656 20.425781 -5.769531 20.40625 -5.9375 L 20.40625 -22.734375 Z M 23.09375 -22.734375" transform="translate(632.394 679.905)"></path> </g> </g> </g> <g fill="#A2FFD5"> <g> <g> <path d="M 2.234375 0 L 2.234375 -22.734375 L 16.234375 -22.734375 L 16.234375 -20.171875 L 4.9375 -20.171875 L 4.9375 -12.734375 L 14.96875 -12.734375 L 14.96875 -10.171875 L 4.9375 -10.171875 L 4.9375 -2.5625 L 16.703125 -2.5625 L 16.703125 0 Z M 2.234375 0" transform="translate(657.928 679.905)"></path> </g> </g> </g> <g fill="#A2FFD5"> <g> <g> <path d="M 1.71875 -4.78125 L 1.71875 -7.40625 L 7.703125 -7.40625 L 7.703125 -4.78125 Z M 1.71875 -4.78125" transform="translate(676.575 679.905)"></path> </g> </g> </g> <g fill="#A2FFD5"> <g> <g> <path d="M 2.234375 0 L 2.234375 -22.734375 L 16.234375 -22.734375 L 16.234375 -20.171875 L 4.9375 -20.171875 L 4.9375 -12.734375 L 14.96875 -12.734375 L 14.96875 -10.171875 L 4.9375 -10.171875 L 4.9375 -2.5625 L 16.703125 -2.5625 L 16.703125 0 Z M 2.234375 0" transform="translate(685.444 679.905)"></path> </g> </g> </g> <g fill="#A2FFD5"> <g> <g> <path d="M 23.09375 -22.734375 L 23.09375 1.046875 C 20.300781 -1.921875 17.53125 -4.867188 14.78125 -7.796875 C 12.03125 -10.722656 9.257812 -13.664062 6.46875 -16.625 C 6.351562 -16.78125 6.25 -16.921875 6.15625 -17.046875 C 6.0625 -17.179688 5.957031 -17.320312 5.84375 -17.46875 C 5.863281 -17.300781 5.878906 -17.128906 5.890625 -16.953125 C 5.898438 -16.785156 5.914062 -16.613281 5.9375 -16.4375 L 5.9375 0 L 3.25 0 L 3.25 -23.78125 C 6.039062 -20.75 8.8125 -17.742188 11.5625 -14.765625 C 14.3125 -11.785156 17.082031 -8.78125 19.875 -5.75 C 19.988281 -5.59375 20.09375 -5.445312 20.1875 -5.3125 C 20.28125 -5.1875 20.382812 -5.050781 20.5 -4.90625 C 20.476562 -5.082031 20.460938 -5.253906 20.453125 -5.421875 C 20.441406 -5.597656 20.425781 -5.769531 20.40625 -5.9375 L 20.40625 -22.734375 Z M 23.09375 -22.734375" transform="translate(704.091 679.905)"></path> </g> </g> </g> <g fill="#A2FFD5"> <g> <g> <path d="M 2.234375 0 L 2.234375 -22.734375 L 16.234375 -22.734375 L 16.234375 -20.171875 L 4.9375 -20.171875 L 4.9375 -12.734375 L 14.96875 -12.734375 L 14.96875 -10.171875 L 4.9375 -10.171875 L 4.9375 -2.5625 L 16.703125 -2.5625 L 16.703125 0 Z M 2.234375 0" transform="translate(729.626 679.905)"></path> </g> </g> </g> <g fill="#A2FFD5"> <g> <g> <path d="M 4.578125 -12.734375 L 7.40625 -12.734375 C 8.351562 -12.734375 9.132812 -12.859375 9.75 -13.109375 C 10.375 -13.359375 10.867188 -13.664062 11.234375 -14.03125 C 11.609375 -14.394531 11.867188 -14.804688 12.015625 -15.265625 C 12.171875 -15.722656 12.25 -16.15625 12.25 -16.5625 C 12.25 -17.039062 12.125 -17.5 11.875 -17.9375 C 11.625 -18.382812 11.285156 -18.773438 10.859375 -19.109375 C 10.441406 -19.453125 9.9375 -19.71875 9.34375 -19.90625 C 8.75 -20.101562 8.113281 -20.203125 7.4375 -20.203125 L 4.578125 -20.203125 Z M 1.890625 0 L 1.890625 -22.734375 L 7.25 -22.734375 C 7.976562 -22.734375 8.789062 -22.617188 9.6875 -22.390625 C 10.59375 -22.171875 11.4375 -21.8125 12.21875 -21.3125 C 13 -20.8125 13.644531 -20.171875 14.15625 -19.390625 C 14.675781 -18.609375 14.9375 -17.664062 14.9375 -16.5625 C 14.9375 -14.9375 14.53125 -13.578125 13.71875 -12.484375 C 12.90625 -11.390625 11.722656 -10.671875 10.171875 -10.328125 L 15.046875 0 L 12.109375 0 L 7.34375 -10.140625 L 4.578125 -10.140625 L 4.578125 0 Z M 1.890625 0" transform="translate(748.273 679.905)"></path> </g> </g> </g> <g fill="#A2FFD5"> <g> <g> <path d="M 13.484375 -7.171875 L 13.484375 -9.75 L 17.96875 -9.75 C 18.59375 -9.75 19.003906 -9.585938 19.203125 -9.265625 C 19.410156 -8.953125 19.515625 -8.460938 19.515625 -7.796875 L 19.515625 -1.359375 C 18.648438 -0.867188 17.722656 -0.472656 16.734375 -0.171875 C 15.753906 0.117188 14.710938 0.265625 13.609375 0.265625 C 12.003906 0.265625 10.5 -0.0351562 9.09375 -0.640625 C 7.6875 -1.253906 6.457031 -2.082031 5.40625 -3.125 C 4.351562 -4.175781 3.523438 -5.40625 2.921875 -6.8125 C 2.316406 -8.226562 2.015625 -9.738281 2.015625 -11.34375 C 2.015625 -12.9375 2.316406 -14.441406 2.921875 -15.859375 C 3.523438 -17.285156 4.351562 -18.519531 5.40625 -19.5625 C 6.457031 -20.613281 7.6875 -21.445312 9.09375 -22.0625 C 10.5 -22.6875 12.003906 -23 13.609375 -23 C 14.710938 -23 15.753906 -22.859375 16.734375 -22.578125 C 17.722656 -22.296875 18.664062 -21.894531 19.5625 -21.375 C 19.320312 -21.007812 19.070312 -20.644531 18.8125 -20.28125 C 18.550781 -19.925781 18.300781 -19.566406 18.0625 -19.203125 C 17.382812 -19.585938 16.675781 -19.890625 15.9375 -20.109375 C 15.207031 -20.328125 14.429688 -20.4375 13.609375 -20.4375 C 12.378906 -20.4375 11.226562 -20.195312 10.15625 -19.71875 C 9.082031 -19.238281 8.140625 -18.582031 7.328125 -17.75 C 6.515625 -16.914062 5.875 -15.945312 5.40625 -14.84375 C 4.9375 -13.738281 4.703125 -12.570312 4.703125 -11.34375 C 4.703125 -10.101562 4.9375 -8.929688 5.40625 -7.828125 C 5.875 -6.722656 6.515625 -5.765625 7.328125 -4.953125 C 8.140625 -4.140625 9.082031 -3.492188 10.15625 -3.015625 C 11.226562 -2.546875 12.378906 -2.3125 13.609375 -2.3125 C 14.734375 -2.3125 15.804688 -2.503906 16.828125 -2.890625 L 16.828125 -6.203125 C 16.828125 -6.566406 16.785156 -6.816406 16.703125 -6.953125 C 16.628906 -7.097656 16.421875 -7.171875 16.078125 -7.171875 Z M 13.484375 -7.171875" transform="translate(764.256 679.905)"></path> </g> </g> </g> <g fill="#A2FFD5"> <g> <g> <path d="M 3.21875 -22.734375 L 5.90625 -22.734375 L 5.90625 0 L 3.21875 0 Z M 3.21875 -22.734375" transform="translate(785.86 679.905)"></path> </g> </g> </g> <g fill="#A2FFD5"> <g> <g> <path d="M 2.234375 0 L 2.234375 -22.734375 L 16.234375 -22.734375 L 16.234375 -20.171875 L 4.9375 -20.171875 L 4.9375 -12.734375 L 14.96875 -12.734375 L 14.96875 -10.171875 L 4.9375 -10.171875 L 4.9375 -2.5625 L 16.703125 -2.5625 L 16.703125 0 Z M 2.234375 0" transform="translate(794.014 679.905)"></path> </g> </g> </g> </svg> 